<?xml version="1.0" encoding="UTF-8" standalone="no"?>
<svg
   version="1.1"
   width="48"
   height="48"
   id="svg6649"
   xmlns:xlink="http://www.w3.org/1999/xlink"
   xmlns="http://www.w3.org/2000/svg"
   xmlns:svg="http://www.w3.org/2000/svg"
   xmlns:rdf="http://www.w3.org/1999/02/22-rdf-syntax-ns#"
   xmlns:cc="http://creativecommons.org/ns#"
   xmlns:dc="http://purl.org/dc/elements/1.1/">
  <defs
     id="defs6651">
    <linearGradient
       id="linearGradient1201">
      <stop
         id="stop1193"
         style="stop-color:#ffffff;stop-opacity:1"
         offset="0" />
      <stop
         id="stop1195"
         style="stop-color:#ffffff;stop-opacity:0.23529412"
         offset="0.4963063" />
      <stop
         id="stop1197"
         style="stop-color:#ffffff;stop-opacity:0.15686275"
         offset="0.73269856" />
      <stop
         id="stop1199"
         style="stop-color:#ffffff;stop-opacity:0.39215687"
         offset="1" />
    </linearGradient>
    <linearGradient
       x1="38.999996"
       y1="5.9999938"
       x2="38.999996"
       y2="41.945408"
       id="linearGradient3058-5"
       xlink:href="#linearGradient1201"
       gradientUnits="userSpaceOnUse"
       gradientTransform="matrix(0.94871795,0,0,0.94871795,1.230773,1.2307797)" />
    <linearGradient
       xlink:href="#linearGradient51"
       id="linearGradient930-9-2"
       x1="16.767664"
       y1="2.7676599"
       x2="16.767664"
       y2="29.51442"
       gradientUnits="userSpaceOnUse"
       gradientTransform="matrix(1.444444,0,0,1.444444,0.888913,0.8888958)" />
    <linearGradient
       id="linearGradient51">
      <stop
         id="stop50"
         style="stop-color:#efdfc4;stop-opacity:1"
         offset="0" />
      <stop
         id="stop51"
         style="stop-color:#e7c591;stop-opacity:1"
         offset="1" />
    </linearGradient>
    <linearGradient
       id="linearGradient64">
      <stop
         style="stop-color:#9bdb4d;stop-opacity:1"
         offset="0"
         id="stop64" />
      <stop
         style="stop-color:#68b723;stop-opacity:1"
         offset="1"
         id="stop65" />
    </linearGradient>
    <linearGradient
       xlink:href="#linearGradient64"
       id="linearGradient4"
       gradientUnits="userSpaceOnUse"
       gradientTransform="translate(38,57.000005)"
       x1="-18.582548"
       y1="-52.039062"
       x2="-18.582548"
       y2="-13.936795" />
  </defs>
  <metadata
     id="metadata6654">
    <rdf:RDF>
      <cc:Work
         rdf:about="">
        <dc:format>image/svg+xml</dc:format>
        <dc:type
           rdf:resource="http://purl.org/dc/dcmitype/StillImage" />
      </cc:Work>
    </rdf:RDF>
  </metadata>
  <circle
     style="font-variation-settings:normal;opacity:1;vector-effect:none;fill:url(#linearGradient930-9-2);fill-opacity:1;stroke:none;stroke-width:1;stroke-linecap:butt;stroke-linejoin:miter;stroke-miterlimit:4;stroke-dasharray:none;stroke-dashoffset:0;stroke-opacity:0.5;-inkscape-stroke:none;marker:none;stop-color:#000000;stop-opacity:1"
     id="path1"
     cx="24"
     cy="24"
     r="19.5" />
  <path
     id="path5-9-7"
     style="font-variation-settings:normal;baseline-shift:baseline;display:inline;overflow:visible;opacity:0.15;vector-effect:none;fill:#cfa25e;fill-opacity:1;stroke-width:1;stroke-linecap:round;stroke-linejoin:round;stroke-miterlimit:4;stroke-dasharray:none;stroke-dashoffset:0;stroke-opacity:1;-inkscape-stroke:none;enable-background:accumulate;stop-color:#000000;stop-opacity:1"
     d="M 23.986328 4.5 A 19.5 19.5 0 0 0 19.787109 4.9609375 C 20.581224 7.0032308 21.445343 9.0206106 22.246094 11.060547 C 16.771195 13.036381 11.288462 14.99369 5.8125 16.966797 A 19.5 19.5 0 0 0 4.5 24 A 19.5 19.5 0 0 0 4.5722656 25.677734 L 25.158203 18.279297 C 26.381418 21.24498 27.522326 24.262328 28.796875 27.195312 C 29.492773 28.026754 30.646093 28.241115 31.550781 28.791016 C 33.398396 29.670893 35.220058 30.644646 37.083984 31.466797 C 38.118709 31.626397 39.091419 31.047889 40.097656 30.871094 C 40.891114 30.653263 41.685925 30.438218 42.480469 30.224609 A 19.5 19.5 0 0 0 43.5 24 A 19.5 19.5 0 0 0 43.390625 21.929688 L 35.841797 23.966797 L 32.484375 15.644531 C 35.002996 14.728852 37.529735 13.834124 40.052734 12.929688 A 19.5 19.5 0 0 0 33.546875 6.9980469 L 29.572266 8.4257812 C 29.091807 7.2744798 28.634468 6.1117093 28.173828 4.9511719 A 19.5 19.5 0 0 0 24.013672 4.5 L 23.986328 4.5 z " />
  <path
     id="path5-9"
     style="font-variation-settings:normal;baseline-shift:baseline;display:inline;overflow:visible;opacity:0.2;vector-effect:none;fill:#b6802e;fill-opacity:1;stroke-width:1;stroke-linecap:round;stroke-linejoin:round;stroke-miterlimit:4;stroke-dasharray:none;stroke-dashoffset:0;stroke-opacity:1;-inkscape-stroke:none;enable-background:accumulate;stop-color:#000000;stop-opacity:1"
     d="M 23.986328 4.5 A 19.5 19.5 0 0 0 20.785156 4.7675781 L 23.5625 11.650391 L 5.3886719 18.181641 A 19.5 19.5 0 0 0 5.3886719 18.183594 A 19.5 19.5 0 0 0 4.5 24 A 19.5 19.5 0 0 0 4.5097656 24.636719 L 25.726562 17.011719 L 29.65625 26.748047 L 37.423828 30.558594 L 42.820312 29.101562 A 19.5 19.5 0 0 0 43.5 24 A 19.5 19.5 0 0 0 43.470703 22.943359 L 35.246094 25.162109 L 31.167969 15.054688 L 39.435547 12.082031 A 19.5 19.5 0 0 0 34.648438 7.6640625 L 29.003906 9.6933594 L 27.001953 4.7324219 A 19.5 19.5 0 0 0 24.013672 4.5 L 23.986328 4.5 z " />
  <path
     id="path4"
     style="font-variation-settings:normal;opacity:1;vector-effect:none;fill:url(#linearGradient4);fill-opacity:1;stroke:none;stroke-width:1;stroke-linecap:butt;stroke-linejoin:miter;stroke-miterlimit:4;stroke-dasharray:none;stroke-dashoffset:0;stroke-opacity:0.5;-inkscape-stroke:none;marker:none;stop-color:#000000;stop-opacity:1"
     d="M 33.640625 28.195312 L 7.2421875 33.970703 A 19.5 19.5 0 0 0 24 43.5 A 19.5 19.5 0 0 0 37.830078 37.746094 L 33.640625 28.195312 z " />
  <path
     id="path6-3-3"
     style="font-variation-settings:normal;baseline-shift:baseline;display:inline;overflow:visible;opacity:0.15;vector-effect:none;fill:#3a9104;fill-opacity:1;stroke-width:1;stroke-linecap:round;stroke-linejoin:round;stroke-miterlimit:4;stroke-dasharray:none;stroke-dashoffset:0;stroke-opacity:1;-inkscape-stroke:none;enable-background:accumulate;stop-color:#000000;stop-opacity:1"
     d="M 34.794922 24.201172 C 34.644663 24.195472 34.490213 24.228452 34.330078 24.322266 L 6.1757812 31.908203 A 19.5 19.5 0 0 0 11.107422 38.628906 L 17.541016 36.892578 C 17.674318 36.856598 17.817557 36.934818 17.859375 37.066406 C 18.489936 39.050561 19.107447 41.03983 19.728516 43.027344 A 19.5 19.5 0 0 0 24 43.5 A 19.5 19.5 0 0 0 27.908203 43.103516 L 25.298828 34.800781 L 31.128906 33.226562 C 32.132964 35.703728 33.13087 38.182482 34.128906 40.662109 A 19.5 19.5 0 0 0 40.183594 34.878906 L 36.097656 24.755859 C 35.661743 24.589013 35.245699 24.218258 34.794922 24.201172 z " />
  <path
     id="path6-3"
     style="font-variation-settings:normal;baseline-shift:baseline;display:inline;overflow:visible;opacity:0.3;vector-effect:none;fill:#3a9104;fill-opacity:1;stroke-width:1;stroke-linecap:round;stroke-linejoin:round;stroke-miterlimit:4;stroke-dasharray:none;stroke-dashoffset:0;stroke-opacity:1;-inkscape-stroke:none;enable-background:accumulate;stop-color:#000000;stop-opacity:1"
     d="M 35.169922 25.130859 L 6.6113281 32.826172 A 19.5 19.5 0 0 0 10.248047 37.826172 L 17.484375 35.873047 A 1.0418167 1.0418167 0 0 1 18.75 36.566406 L 20.847656 43.244141 A 19.5 19.5 0 0 0 24 43.5 A 19.5 19.5 0 0 0 26.917969 43.28125 L 24.033203 34.107422 L 31.724609 32.03125 L 34.986328 40.111328 A 19.5 19.5 0 0 0 39.492188 35.841797 L 35.169922 25.130859 z " />
  <path
     style="baseline-shift:baseline;display:inline;overflow:visible;vector-effect:none;fill:#ffe16b;stroke-linecap:round;stroke-linejoin:round;enable-background:accumulate;stop-color:#000000"
     d="M 8.643142,58.251327 22.889823,93.555088"
     id="path57" />
  <path
     id="path6"
     style="baseline-shift:baseline;display:inline;overflow:visible;vector-effect:none;fill:#fafafa;stroke-width:1;stroke-linecap:round;stroke-linejoin:round;enable-background:accumulate;stop-color:#000000"
     d="M 33.585938 7.0195312 L 5.796875 17.007812 A 19.5 19.5 0 0 0 4.5039062 23.611328 L 38.787109 11.287109 A 19.5 19.5 0 0 0 33.585938 7.0195312 z M 43.386719 21.892578 L 6.1835938 31.927734 A 19.5 19.5 0 0 0 9.4863281 37.023438 L 17.111328 34.964844 A 2.0832787 2.0832787 0 0 1 19.642578 36.351562 L 21.851562 43.380859 A 19.5 19.5 0 0 0 24 43.5 A 19.5 19.5 0 0 0 27.828125 43.121094 L 24.626953 32.9375 L 43.095703 27.953125 A 19.5 19.5 0 0 0 43.5 24 A 19.5 19.5 0 0 0 43.386719 21.892578 z " />
  <path
     id="path58-6"
     mask="none"
     style="baseline-shift:baseline;display:inline;overflow:visible;vector-effect:none;fill:#ffe16b;stroke-width:1;stroke-linecap:round;stroke-linejoin:round;enable-background:accumulate;stop-color:#000000"
     d="M 23.986328 4.5 A 19.5 19.5 0 0 0 21.734375 4.6328125 L 35.8125 39.515625 A 19.5 19.5 0 0 0 40.175781 34.892578 L 40.175781 34.890625 L 28.087891 4.9335938 L 28.085938 4.9335938 A 19.5 19.5 0 0 0 24.013672 4.5 L 23.986328 4.5 z " />
  <circle
     style="font-variation-settings:normal;opacity:0.4;vector-effect:none;fill:none;fill-opacity:1;stroke:url(#linearGradient3058-5);stroke-width:0.999996;stroke-linecap:round;stroke-linejoin:round;stroke-miterlimit:4;stroke-dasharray:none;stroke-dashoffset:0;stroke-opacity:1;-inkscape-stroke:none;marker:none;stop-color:#000000;stop-opacity:1"
     id="path1-2"
     cx="24"
     cy="24"
     r="18.5" />
  <circle
     style="font-variation-settings:normal;vector-effect:none;fill:none;fill-opacity:1;stroke:#cfa25e;stroke-width:1;stroke-linecap:butt;stroke-linejoin:miter;stroke-miterlimit:4;stroke-dasharray:none;stroke-dashoffset:0;stroke-opacity:0.5;-inkscape-stroke:none;marker:none;stop-color:#000000"
     id="path1-7"
     cx="24"
     cy="24"
     r="19.5" />
</svg>
