<?xml version="1.0" encoding="UTF-8" standalone="no"?>
<svg
   version="1.1"
   width="48"
   height="48"
   id="svg6649"
   xmlns:xlink="http://www.w3.org/1999/xlink"
   xmlns="http://www.w3.org/2000/svg"
   xmlns:svg="http://www.w3.org/2000/svg"
   xmlns:rdf="http://www.w3.org/1999/02/22-rdf-syntax-ns#"
   xmlns:cc="http://creativecommons.org/ns#"
   xmlns:dc="http://purl.org/dc/elements/1.1/">
  <defs
     id="defs6651">
    <linearGradient
       id="linearGradient1201">
      <stop
         id="stop1193"
         style="stop-color:#ffffff;stop-opacity:1"
         offset="0" />
      <stop
         id="stop1195"
         style="stop-color:#ffffff;stop-opacity:0.23529412"
         offset="0.06781636" />
      <stop
         id="stop1197"
         style="stop-color:#ffffff;stop-opacity:0.15686275"
         offset="0.94694352" />
      <stop
         id="stop1199"
         style="stop-color:#ffffff;stop-opacity:0.39215687"
         offset="1" />
    </linearGradient>
    <linearGradient
       id="linearGradient3688-166-749">
      <stop
         id="stop2883"
         style="stop-color:#181818;stop-opacity:1"
         offset="0" />
      <stop
         id="stop2885"
         style="stop-color:#181818;stop-opacity:0"
         offset="1" />
    </linearGradient>
    <linearGradient
       id="linearGradient3702-501-757">
      <stop
         id="stop2895"
         style="stop-color:#181818;stop-opacity:0"
         offset="0" />
      <stop
         id="stop2897"
         style="stop-color:#181818;stop-opacity:1"
         offset="0.5" />
      <stop
         id="stop2899"
         style="stop-color:#181818;stop-opacity:0"
         offset="1" />
    </linearGradient>
    <radialGradient
       cx="4.9929786"
       cy="43.5"
       r="2.5"
       fx="4.9929786"
       fy="43.5"
       id="radialGradient3013-6"
       xlink:href="#linearGradient3688-166-749"
       gradientUnits="userSpaceOnUse"
       gradientTransform="matrix(2.003784,0,0,0.89999994,29.98813,4.8500025)" />
    <radialGradient
       cx="4.9929786"
       cy="43.5"
       r="2.5"
       fx="4.9929786"
       fy="43.5"
       id="radialGradient3015-1"
       xlink:href="#linearGradient3688-166-749"
       gradientUnits="userSpaceOnUse"
       gradientTransform="matrix(2.003784,0,0,0.89999994,-18.01187,-83.149997)" />
    <linearGradient
       x1="38.999996"
       y1="5.9999938"
       x2="38.999996"
       y2="41.945408"
       id="linearGradient3058-5"
       xlink:href="#linearGradient1201"
       gradientUnits="userSpaceOnUse"
       gradientTransform="translate(4e-6,1.0000062)" />
    <linearGradient
       xlink:href="#linearGradient3702-501-757"
       id="linearGradient1191"
       gradientUnits="userSpaceOnUse"
       x1="25.058096"
       y1="47.027729"
       x2="25.058096"
       y2="39.999443"
       gradientTransform="matrix(1.1428571,0,0,0.6428571,-3.428569,16.035716)" />
    <linearGradient
       xlink:href="#linearGradient51"
       id="linearGradient930-9-2"
       x1="16.767664"
       y1="2.7676599"
       x2="16.767664"
       y2="29.51442"
       gradientUnits="userSpaceOnUse"
       gradientTransform="matrix(1.444444,0,0,1.444444,0.888913,1.888891)" />
    <linearGradient
       id="linearGradient51">
      <stop
         id="stop50"
         style="stop-color:#efdfc4;stop-opacity:1"
         offset="0" />
      <stop
         id="stop51"
         style="stop-color:#e7c591;stop-opacity:1"
         offset="1" />
    </linearGradient>
    <linearGradient
       id="linearGradient64">
      <stop
         style="stop-color:#9bdb4d;stop-opacity:1"
         offset="0"
         id="stop64" />
      <stop
         style="stop-color:#68b723;stop-opacity:1"
         offset="1"
         id="stop65" />
    </linearGradient>
    <radialGradient
       cx="9.6923532"
       cy="41.271797"
       fx="9.6923532"
       fy="41.271797"
       r="29.069305"
       gradientTransform="matrix(1.2896764,0,0,0.77538829,57.5,70.867224)"
       id="radialGradient-9-0-5-6"
       gradientUnits="userSpaceOnUse">
      <stop
         stop-color="#000000"
         offset="0%"
         id="stop20-9-0-0" />
      <stop
         stop-color="#000000"
         stop-opacity="0"
         offset="100%"
         id="stop21-3-3-4" />
    </radialGradient>
    <filter
       x="-0.20869565"
       y="-0.48"
       width="1.4173913"
       height="1.96"
       filterUnits="objectBoundingBox"
       id="filter-10-6-6-8">
      <feGaussianBlur
         stdDeviation="2"
         in="SourceGraphic"
         id="feGaussianBlur21-0-1-8" />
    </filter>
    <linearGradient
       id="linearGradient72">
      <stop
         id="stop69"
         style="stop-color:#ffffff;stop-opacity:1"
         offset="0" />
      <stop
         id="stop70"
         style="stop-color:#ffffff;stop-opacity:0.23529412"
         offset="0.4065806" />
      <stop
         id="stop71"
         style="stop-color:#ffffff;stop-opacity:0.15686275"
         offset="0.72683871" />
      <stop
         id="stop72"
         style="stop-color:#ffffff;stop-opacity:0.39215687"
         offset="1" />
    </linearGradient>
    <linearGradient
       xlink:href="#linearGradient64"
       id="linearGradient4"
       gradientUnits="userSpaceOnUse"
       gradientTransform="translate(38,58)"
       x1="-18.582548"
       y1="-52.039062"
       x2="-18.582548"
       y2="-13.936795" />
    <linearGradient
       xlink:href="#linearGradient72"
       id="linearGradient6"
       gradientUnits="userSpaceOnUse"
       gradientTransform="matrix(0.98968057,0,0,0.99234112,44.499911,-0.19800023)"
       x1="-20.900743"
       y1="12.380857"
       x2="-20.900743"
       y2="34.212009" />
    <linearGradient
       xlink:href="#linearGradient12"
       id="linearGradient13"
       x1="25.999889"
       y1="26"
       x2="37.999889"
       y2="26"
       gradientUnits="userSpaceOnUse"
       gradientTransform="matrix(0.66666667,0,0,0.66666667,-42.333259,6.5211527)" />
    <linearGradient
       id="linearGradient12">
      <stop
         style="stop-color:#a10705;stop-opacity:1;"
         offset="0"
         id="stop12" />
      <stop
         style="stop-color:#7a0000;stop-opacity:1"
         offset="1"
         id="stop13" />
    </linearGradient>
    <linearGradient
       id="linearGradient67-3">
      <stop
         style="stop-color:#ed5353;stop-opacity:1"
         offset="0"
         id="stop67-6" />
      <stop
         style="stop-color:#cf3137;stop-opacity:1;"
         offset="0.53065509"
         id="stop7" />
      <stop
         style="stop-color:#7a0000;stop-opacity:1"
         offset="1"
         id="stop68-1" />
    </linearGradient>
    <linearGradient
       id="linearGradient7">
      <stop
         style="stop-color:#a10705;stop-opacity:0.5;"
         offset="0"
         id="stop8" />
      <stop
         style="stop-color:#7a0000;stop-opacity:1"
         offset="1"
         id="stop9" />
    </linearGradient>
    <linearGradient
       xlink:href="#linearGradient67-3"
       id="linearGradient1"
       gradientUnits="userSpaceOnUse"
       gradientTransform="matrix(0.96882097,0,0,0.97365597,-49.975833,-5.3454605)"
       x1="80.869858"
       y1="16.963799"
       x2="80.869858"
       y2="69.711014" />
    <linearGradient
       xlink:href="#linearGradient7"
       id="linearGradient2"
       gradientUnits="userSpaceOnUse"
       gradientTransform="matrix(0.96882097,0,0,0.97365597,-49.975833,-5.3454605)"
       x1="84.343704"
       y1="44.900608"
       x2="84.343704"
       y2="69.672173" />
  </defs>
  <metadata
     id="metadata6654">
    <rdf:RDF>
      <cc:Work
         rdf:about="">
        <dc:format>image/svg+xml</dc:format>
        <dc:type
           rdf:resource="http://purl.org/dc/dcmitype/StillImage" />
      </cc:Work>
    </rdf:RDF>
  </metadata>
  <rect
     style="opacity:0.6;fill:url(#radialGradient3013-6);fill-opacity:1;stroke:none;stroke-width:0.862764"
     id="rect2801-3-7"
     y="41.75"
     x="40"
     height="4.4999995"
     width="5" />
  <rect
     style="opacity:0.6;fill:url(#radialGradient3015-1);fill-opacity:1;stroke:none;stroke-width:0.862764"
     id="rect3696-6-3"
     transform="scale(-1)"
     y="-46.25"
     x="-8"
     height="4.4999995"
     width="5" />
  <rect
     style="opacity:0.6;fill:url(#linearGradient1191);fill-opacity:1;stroke:none;stroke-width:0.862764"
     id="rect3700-4-6"
     y="41.75"
     x="8"
     height="4.5"
     width="32" />
  <rect
     style="color:#000000;font-variation-settings:normal;display:inline;overflow:visible;visibility:visible;vector-effect:none;fill:url(#linearGradient930-9-2);fill-opacity:1;fill-rule:nonzero;stroke:none;stroke-width:1;stroke-linecap:butt;stroke-linejoin:miter;stroke-miterlimit:4;stroke-dasharray:none;stroke-dashoffset:0;stroke-opacity:0.5;marker:none;enable-background:accumulate;stop-color:#000000"
     id="rect5505-21-1"
     y="5.4999952"
     x="4.5000153"
     ry="4"
     rx="4"
     height="39"
     width="39" />
  <path
     id="path5-9-7"
     style="font-variation-settings:normal;baseline-shift:baseline;display:inline;overflow:visible;opacity:0.15;vector-effect:none;fill:#cfa25e;fill-opacity:1;stroke-width:1;stroke-linecap:round;stroke-linejoin:round;stroke-miterlimit:4;stroke-dasharray:none;stroke-dashoffset:0;stroke-opacity:1;-inkscape-stroke:none;enable-background:accumulate;stop-color:#000000;stop-opacity:1"
     d="M 19.609375 5.5 C 20.450999 7.6999022 21.38521 9.8674202 22.246094 12.060547 C 16.333628 14.194294 10.412404 16.305545 4.5 18.439453 L 4.5 26.703125 L 25.158203 19.279297 C 26.381418 22.24498 27.522326 25.262328 28.796875 28.195312 C 29.492773 29.026754 30.646093 29.241115 31.550781 29.791016 C 33.398396 30.670893 35.220058 31.644646 37.083984 32.466797 C 38.118709 32.626397 39.091419 32.047889 40.097656 31.871094 C 41.230659 31.560047 42.364872 31.255418 43.5 30.951172 L 43.5 22.900391 L 35.841797 24.966797 L 32.484375 16.644531 C 36.151252 15.311387 39.83495 14.021327 43.5 12.683594 L 43.5 9.5 C 43.5 7.5526755 42.122962 5.9388543 40.285156 5.5761719 L 29.572266 9.4257812 C 29.02943 8.1250085 28.516038 6.8105359 27.994141 5.5 L 19.609375 5.5 z " />
  <path
     id="path5-9"
     style="font-variation-settings:normal;baseline-shift:baseline;display:inline;overflow:visible;opacity:0.2;vector-effect:none;fill:#b6802e;fill-opacity:1;stroke-width:1;stroke-linecap:round;stroke-linejoin:round;stroke-miterlimit:4;stroke-dasharray:none;stroke-dashoffset:0;stroke-opacity:1;-inkscape-stroke:none;enable-background:accumulate;stop-color:#000000;stop-opacity:1"
     d="M 20.677734 5.5 L 23.5625 12.650391 L 4.5 19.501953 L 4.5 25.640625 L 25.726562 18.011719 L 29.65625 27.748047 L 37.423828 31.558594 L 43.5 29.917969 L 43.5 23.935547 L 35.246094 26.162109 L 31.167969 16.054688 L 43.5 11.621094 L 43.5 9.5 C 43.5 8.0873177 42.775534 6.8499596 41.675781 6.1386719 L 29.003906 10.693359 L 26.908203 5.5 L 20.677734 5.5 z " />
  <path
     id="path4"
     style="font-variation-settings:normal;opacity:1;vector-effect:none;fill:url(#linearGradient4);fill-opacity:1;stroke:none;stroke-width:1;stroke-linecap:butt;stroke-linejoin:miter;stroke-miterlimit:4;stroke-dasharray:none;stroke-dashoffset:0;stroke-opacity:0.5;-inkscape-stroke:none;marker:none;stop-color:#000000;stop-opacity:1"
     d="M 33.640625 29.195312 L 4.5 35.570312 L 4.5 40.5 C 4.5 42.716 6.284 44.5 8.5 44.5 L 39.5 44.5 C 39.780727 44.5 40.054247 44.470527 40.318359 44.416016 L 33.640625 29.195312 z " />
  <path
     id="path6-3-3"
     style="font-variation-settings:normal;baseline-shift:baseline;display:inline;overflow:visible;opacity:0.15;vector-effect:none;fill:#3a9104;fill-opacity:1;stroke-width:1;stroke-linecap:round;stroke-linejoin:round;stroke-miterlimit:4;stroke-dasharray:none;stroke-dashoffset:0;stroke-opacity:1;-inkscape-stroke:none;enable-background:accumulate;stop-color:#000000;stop-opacity:1"
     d="m 34.794922,25.201172 c -0.150259,-0.0057 -0.304709,0.02728 -0.464844,0.121094 L 4.5,33.359375 V 40.5 c 0,0.304757 0.03369,0.60182 0.097656,0.886719 l 12.944183,-3.493453 c 0.133302,-0.03598 0.275324,0.04151 0.317142,0.173098 0.680638,2.141728 1.347007,4.288482 2.017972,6.433636 h 8.15625 l -2.734375,-8.699219 5.830078,-1.574219 C 32.515922,37.648544 33.891992,41.07475 35.271484,44.5 H 39.5 c 1.438673,0 2.695842,-0.752811 3.400391,-1.886719 L 36.097656,25.755859 c -0.435913,-0.166846 -0.851957,-0.537601 -1.302734,-0.554687 z" />
  <path
     id="path6-3"
     style="font-variation-settings:normal;baseline-shift:baseline;display:inline;overflow:visible;opacity:0.3;vector-effect:none;fill:#3a9104;fill-opacity:1;stroke-width:1;stroke-linecap:round;stroke-linejoin:round;stroke-miterlimit:4;stroke-dasharray:none;stroke-dashoffset:0;stroke-opacity:1;-inkscape-stroke:none;enable-background:accumulate;stop-color:#000000;stop-opacity:1"
     d="M 35.169922,26.130859 4.5,34.394531 v 5.982422 l 12.983744,-3.503175 a 1.0418167,1.0418167 28.727184 0 1 1.265283,0.693503 L 20.927734,44.5 h 6.058594 L 24.033203,35.107422 31.724609,33.03125 36.353516,44.5 H 39.5 c 1.028513,0 1.964657,-0.384145 2.671875,-1.017578 z" />
  <path
     style="baseline-shift:baseline;display:inline;overflow:visible;vector-effect:none;fill:#ffe16b;stroke-linecap:round;stroke-linejoin:round;enable-background:accumulate;stop-color:#000000"
     d="M 8.643142,58.251327 22.889823,93.555088"
     id="path57" />
  <path
     id="path6"
     style="baseline-shift:baseline;display:inline;overflow:visible;vector-effect:none;fill:#fafafa;stroke-width:0.692308;stroke-linecap:round;stroke-linejoin:round;enable-background:accumulate;stop-color:#000000"
     d="m -17.6851,2.5621987 -24.814911,8.9202253 v 4.249851 L -15.500003,6.0264426 V 5.2692308 c 0,-1.3329925 -0.932882,-2.4395919 -2.183744,-2.7070321 -4.33e-4,-9.24e-5 -9.2e-4,9.22e-5 -0.0014,0 z m 2.185097,11.9571853 -27.000008,7.284107 v 4.144382 l 8.731445,-2.356997 a 1.4422703,1.4422703 28.725051 0 1 1.751823,0.960091 l 1.555047,4.94904 h 4.194412 l -2.298678,-7.312502 13.065959,-3.526443 z"
     transform="matrix(1.444444,0,0,1.444444,65.888886,1.8888912)" />
  <path
     id="path58-6"
     mask="none"
     style="baseline-shift:baseline;display:inline;overflow:visible;vector-effect:none;fill:#ffe16b;stroke-width:0.692308;stroke-linecap:round;stroke-linejoin:round;enable-background:accumulate;stop-color:#000000"
     d="M -30.605025 2.4999992 L -19.709289 29.500007 L -18.269234 29.500007 C -17.276735 29.500007 -16.409251 28.983675 -15.920526 28.203282 L -26.291623 2.4999992 L -30.605025 2.4999992 z "
     transform="matrix(1.444444,0,0,1.444444,65.888886,1.8888912)" />
  <ellipse
     id="Shadow-6-7"
     fill="url(#radialGradient-9)"
     fill-rule="nonzero"
     opacity="0.580799"
     filter="url(#filter-10)"
     cx="70"
     cy="102.86723"
     rx="11.5"
     ry="5"
     style="opacity:0.3;fill:url(#radialGradient-9-0-5-6);stroke-width:1.44737;filter:url(#filter-10-6-6-8)"
     transform="matrix(0.69090909,0,0,0.69090909,-24.363621,-37.181823)" />
  <path
     id="rect52-9-8-3-0"
     style="font-variation-settings:normal;opacity:0.125723;vector-effect:none;fill:#ff8c82;fill-opacity:1;stroke:none;stroke-width:0.999994;stroke-linecap:round;stroke-linejoin:round;stroke-miterlimit:4;stroke-dasharray:none;stroke-dashoffset:0;stroke-opacity:0.5;-inkscape-stroke:none"
     d="m 23.549305,19.022012 c -3.405202,0.112769 -6.915371,1.919363 -8.425344,5.073068 -1.322486,2.675443 -0.629891,6.099346 1.497188,8.157751 1.340936,1.268913 2.825771,2.376537 4.217834,3.588807 0.813987,0.711876 1.726321,1.442723 2.862989,1.464334 1.195383,0.117171 2.35691,-0.409865 3.191227,-1.246228 1.527505,-1.301544 3.122254,-2.530847 4.588026,-3.900856 1.965658,-2.01637 2.676655,-5.220089 1.501645,-7.818207 -1.552097,-3.591853 -5.66155,-5.502309 -9.433565,-5.318669 z" />
  <path
     id="rect52-9-8-3"
     style="font-variation-settings:normal;opacity:0.334042;vector-effect:none;fill:#ff8c82;fill-opacity:1;stroke:none;stroke-width:0.999994;stroke-linecap:round;stroke-linejoin:round;stroke-miterlimit:4;stroke-dasharray:none;stroke-dashoffset:0;stroke-opacity:0.5;-inkscape-stroke:none"
     d="m 23.561699,19.713161 c -3.16644,0.102308 -6.161248,1.759396 -7.528623,4.145083 -1.466582,2.441949 -1.108076,5.551936 0.890632,7.71434 0.772303,0.839315 1.755873,1.519986 2.623699,2.287541 0.920621,0.748003 1.793132,1.540637 2.744099,2.260509 1.004845,0.722536 2.628357,0.658761 3.576439,-0.106764 1.596071,-1.331004 3.202142,-2.655362 4.781483,-3.999807 2.080085,-1.938735 2.77543,-4.82231 1.748736,-7.281152 -1.004297,-2.552924 -3.799076,-4.531532 -6.980375,-4.934108 -0.61288,-0.08392 -1.235943,-0.107822 -1.85609,-0.08564 z" />
  <path
     id="rect52-9-8"
     style="font-variation-settings:normal;opacity:0.3;vector-effect:none;fill:#ed5353;fill-opacity:1;stroke:none;stroke-width:2.14952;stroke-linecap:round;stroke-linejoin:round;stroke-miterlimit:4;stroke-dasharray:none;stroke-dashoffset:0;stroke-opacity:0.5;-inkscape-stroke:none"
     d="M 31.999076,12 C 23.163215,12.000448 16.000447,19.163217 16,27.999078 c -8.9e-5,4.490502 1.886869,8.774353 5.200068,11.805413 l 8.016506,8.017876 a 3.9350527,3.9350527 0.00244835 0 0 5.565242,2.38e-4 L 42.79993,39.804491 C 46.11313,36.773432 48.000088,32.489581 48,27.999078 47.999553,19.162495 40.835659,11.999427 31.999076,12 Z"
     transform="matrix(0.5089645,0,0,0.42522865,7.7132208,15.205904)" />
  <path
     id="rect52-9"
     style="font-variation-settings:normal;vector-effect:none;fill:url(#linearGradient1);fill-opacity:1;stroke:url(#linearGradient2);stroke-width:1.50104943;stroke-linecap:round;stroke-linejoin:round;stroke-miterlimit:4;stroke-dasharray:none;stroke-dashoffset:0;stroke-opacity:1;-inkscape-stroke:none;opacity:1;stop-color:#000000;stop-opacity:1"
     d="M 31.999076,12 C 23.163215,12.000448 16.000447,19.163217 16,27.999078 c -8.9e-5,4.490502 1.886869,8.774353 5.200068,11.805413 l 8.016506,8.017876 a 3.9350527,3.9350527 0.00244835 0 0 5.565242,2.38e-4 L 42.79993,39.804491 C 46.11313,36.773432 48.000088,32.489581 48,27.999078 47.999553,19.162495 40.835659,11.999427 31.999076,12 Z"
     transform="matrix(0.65671149,0,0,0.67581867,2.9852323,2.3973982)" />
  <path
     id="rect52-9-6"
     style="font-variation-settings:normal;vector-effect:none;fill:none;fill-opacity:1;stroke:url(#linearGradient6);stroke-width:1;stroke-linecap:round;stroke-linejoin:round;stroke-miterlimit:4;stroke-dasharray:none;stroke-dashoffset:0;stroke-opacity:1;-inkscape-stroke:none;opacity:0.3;stop-color:#000000;stop-opacity:1"
     d="m 23.504901,11.53547 c -3.533469,0.146171 -6.849621,2.523541 -8.233924,5.867536 -1.469875,3.376119 -0.844568,7.574364 1.541431,10.342224 1.998012,2.104825 4.03721,4.173308 6.06275,6.250555 0.667316,0.708093 1.850026,0.577406 2.431371,-0.178888 1.954335,-2.027963 3.942456,-4.02375 5.878658,-6.068711 2.413194,-2.796336 3.026223,-7.056008 1.497887,-10.449707 -1.447888,-3.398528 -4.906921,-5.75814 -8.517503,-5.771783 -0.220217,-0.01014 -0.440447,0.0056 -0.66067,0.0088 z" />
  <rect
     style="color:#000000;font-variation-settings:normal;display:inline;overflow:visible;visibility:visible;vector-effect:none;fill:none;fill-opacity:1;fill-rule:nonzero;stroke:#b6802e;stroke-width:1;stroke-linecap:butt;stroke-linejoin:round;stroke-miterlimit:4;stroke-dasharray:none;stroke-dashoffset:0;stroke-opacity:1;marker:none;enable-background:accumulate;stop-color:#000000;opacity:0.5;-inkscape-stroke:none;stop-opacity:1"
     id="rect5505-21-1-6"
     y="5.4999952"
     x="4.5000153"
     ry="4"
     rx="4"
     height="39"
     width="39" />
  <rect
     style="opacity:0.4;fill:none;stroke:url(#linearGradient3058-5);stroke-width:1;stroke-linecap:round;stroke-linejoin:round;stroke-miterlimit:4;stroke-dasharray:none;stroke-dashoffset:0;stroke-opacity:1"
     id="rect6741-2"
     y="6.4999952"
     x="5.5000153"
     ry="3"
     rx="3"
     height="37"
     width="37" />
  <circle
     style="font-variation-settings:normal;vector-effect:none;fill:url(#linearGradient13);fill-opacity:1;stroke:none;stroke-width:1;stroke-linecap:round;stroke-linejoin:round;stroke-miterlimit:4;stroke-dasharray:none;stroke-dashoffset:0;stroke-opacity:1;-inkscape-stroke:none;marker:none"
     id="path73-3"
     cx="-21"
     cy="23.854486"
     r="4"
     transform="rotate(-90)" />
  <circle
     style="font-variation-settings:normal;opacity:0.1;vector-effect:none;fill:#fafafa;fill-opacity:1;stroke:none;stroke-width:0.999997;stroke-linecap:round;stroke-linejoin:round;stroke-miterlimit:4;stroke-dasharray:none;stroke-dashoffset:0;stroke-opacity:1;-inkscape-stroke:none;marker:none"
     id="path73-0"
     cx="23.854486"
     cy="22"
     r="4" />
</svg>
