<?xml version="1.0" encoding="UTF-8" standalone="no"?>
<svg
   id="svg4379"
   height="128"
   width="128"
   version="1.1"
   xmlns:xlink="http://www.w3.org/1999/xlink"
   xmlns="http://www.w3.org/2000/svg"
   xmlns:svg="http://www.w3.org/2000/svg"
   xmlns:rdf="http://www.w3.org/1999/02/22-rdf-syntax-ns#"
   xmlns:cc="http://creativecommons.org/ns#"
   xmlns:dc="http://purl.org/dc/elements/1.1/">
  <defs
     id="defs4381">
    <linearGradient
       gradientTransform="matrix(2.7297298,0,0,2.7297298,-1.5135124,1.486514)"
       gradientUnits="userSpaceOnUse"
       xlink:href="#linearGradient3924-776"
       id="linearGradient3159"
       y2="43"
       x2="23.99999"
       y1="4.999989"
       x1="23.99999" />
    <linearGradient
       id="linearGradient3924-776">
      <stop
         offset="0"
         style="stop-color:#ffffff;stop-opacity:1"
         id="stop3124" />
      <stop
         offset="0.06316455"
         style="stop-color:#ffffff;stop-opacity:0.23529412"
         id="stop3126" />
      <stop
         offset="0.95056331"
         style="stop-color:#ffffff;stop-opacity:0.15686275"
         id="stop3128" />
      <stop
         offset="1"
         style="stop-color:#ffffff;stop-opacity:0.39215687"
         id="stop3130" />
    </linearGradient>
    <radialGradient
       gradientTransform="matrix(2.003784,0,0,1.4,27.98813,-17.4)"
       gradientUnits="userSpaceOnUse"
       xlink:href="#linearGradient3688-166-749-5"
       id="radialGradient2455-1"
       fy="43.5"
       fx="4.9929786"
       r="2.5"
       cy="43.5"
       cx="4.9929786" />
    <linearGradient
       id="linearGradient3688-166-749-5">
      <stop
         offset="0"
         style="stop-color:#181818;stop-opacity:1"
         id="stop2883-0" />
      <stop
         offset="1"
         style="stop-color:#181818;stop-opacity:0"
         id="stop2885-5" />
    </linearGradient>
    <radialGradient
       gradientTransform="matrix(2.003784,0,0,1.4,-20.01187,-104.4)"
       gradientUnits="userSpaceOnUse"
       xlink:href="#linearGradient3688-464-309-8"
       id="radialGradient2457-5"
       fy="43.5"
       fx="4.9929786"
       r="2.5"
       cy="43.5"
       cx="4.9929786" />
    <linearGradient
       id="linearGradient3688-464-309-8">
      <stop
         offset="0"
         style="stop-color:#181818;stop-opacity:1"
         id="stop2889-9" />
      <stop
         offset="1"
         style="stop-color:#181818;stop-opacity:0"
         id="stop2891-4" />
    </linearGradient>
    <linearGradient
       gradientUnits="userSpaceOnUse"
       xlink:href="#linearGradient3702-501-757-0"
       id="linearGradient2459-7"
       y2="39.999443"
       x2="25.058096"
       y1="47.027729"
       x1="25.058096" />
    <linearGradient
       id="linearGradient3702-501-757-0">
      <stop
         offset="0"
         style="stop-color:#181818;stop-opacity:0"
         id="stop2895-0" />
      <stop
         offset="0.5"
         style="stop-color:#181818;stop-opacity:1"
         id="stop2897-2" />
      <stop
         offset="1"
         style="stop-color:#181818;stop-opacity:0"
         id="stop2899-6" />
    </linearGradient>
    <linearGradient
       id="linearGradient3811">
      <stop
         offset="0"
         style="stop-color:#000000;stop-opacity:1"
         id="stop3813" />
      <stop
         offset="1"
         style="stop-color:#000000;stop-opacity:0"
         id="stop3815" />
    </linearGradient>
    <radialGradient
       gradientTransform="matrix(1.5563924,0,0,0.16978827,70.270358,102.13029)"
       gradientUnits="userSpaceOnUse"
       xlink:href="#linearGradient3811"
       id="radialGradient4377"
       fy="93.467628"
       fx="-4.0287771"
       r="35.338131"
       cy="93.467628"
       cx="-4.0287771" />
    <linearGradient
       xlink:href="#linearGradient51"
       id="linearGradient882"
       x1="62.871635"
       y1="15.90732"
       x2="62.871635"
       y2="118.42699"
       gradientUnits="userSpaceOnUse" />
    <linearGradient
       id="linearGradient51">
      <stop
         id="stop50"
         style="stop-color:#efdfc4;stop-opacity:1"
         offset="0" />
      <stop
         id="stop51"
         style="stop-color:#e7c591;stop-opacity:1"
         offset="1" />
    </linearGradient>
    <linearGradient
       xlink:href="#linearGradient64"
       id="linearGradient65"
       x1="25.150442"
       y1="5.0300884"
       x2="25.150442"
       y2="59.231861"
       gradientUnits="userSpaceOnUse"
       gradientTransform="matrix(1.8727273,0,0,1.8727273,4.07272,7.0727273)" />
    <linearGradient
       id="linearGradient64">
      <stop
         style="stop-color:#9bdb4d;stop-opacity:1"
         offset="0"
         id="stop64" />
      <stop
         style="stop-color:#68b723;stop-opacity:1"
         offset="1"
         id="stop65" />
    </linearGradient>
    <radialGradient
       cx="9.6923532"
       cy="41.271797"
       fx="9.6923532"
       fy="41.271797"
       r="29.069305"
       gradientTransform="matrix(1.2896764,0,0,0.77538829,173.5,12.867224)"
       id="radialGradient-9-0-5-6"
       gradientUnits="userSpaceOnUse">
      <stop
         stop-color="#000000"
         offset="0%"
         id="stop20-9-0-0" />
      <stop
         stop-color="#000000"
         stop-opacity="0"
         offset="100%"
         id="stop21-3-3-4" />
    </radialGradient>
    <filter
       x="-0.20869565"
       y="-0.48"
       width="1.4173913"
       height="1.96"
       filterUnits="objectBoundingBox"
       id="filter-10-6-6-8">
      <feGaussianBlur
         stdDeviation="2"
         in="SourceGraphic"
         id="feGaussianBlur21-0-1-8" />
    </filter>
    <linearGradient
       id="linearGradient72">
      <stop
         id="stop69"
         style="stop-color:#ffffff;stop-opacity:1"
         offset="0" />
      <stop
         id="stop70"
         style="stop-color:#ffffff;stop-opacity:0.23529412"
         offset="0.4065806" />
      <stop
         id="stop71"
         style="stop-color:#ffffff;stop-opacity:0.15686275"
         offset="0.72683871" />
      <stop
         id="stop72"
         style="stop-color:#ffffff;stop-opacity:0.39215687"
         offset="1" />
    </linearGradient>
    <linearGradient
       xlink:href="#linearGradient72"
       id="linearGradient69"
       gradientUnits="userSpaceOnUse"
       gradientTransform="matrix(2.6825553,0,0,2.6897668,-102.38133,-1.2998295)"
       x1="62.342915"
       y1="11.324578"
       x2="62.342915"
       y2="34.830856" />
    <filter
       style="color-interpolation-filters:sRGB"
       id="filter2"
       x="-0.067861041"
       y="-0.057745843"
       width="1.1357221"
       height="1.1154917">
      <feGaussianBlur
         stdDeviation="1.6119419"
         id="feGaussianBlur2" />
    </filter>
    <filter
       style="color-interpolation-filters:sRGB"
       id="filter2-0"
       x="-0.17536096"
       y="-0.14922209"
       width="1.3507219"
       height="1.2984442">
      <feGaussianBlur
         stdDeviation="4.1654487"
         id="feGaussianBlur2-9" />
    </filter>
    <linearGradient
       id="linearGradient12">
      <stop
         style="stop-color:#a10705;stop-opacity:1;"
         offset="0"
         id="stop12" />
      <stop
         style="stop-color:#7a0000;stop-opacity:1"
         offset="1"
         id="stop13" />
    </linearGradient>
    <linearGradient
       xlink:href="#linearGradient67-6"
       id="linearGradient68-3"
       x1="11.20001"
       y1="3.3732569"
       x2="11.20001"
       y2="31.063946"
       gradientUnits="userSpaceOnUse"
       gradientTransform="matrix(1.7812502,0,0,1.8121626,6.9999925,5.7540127)" />
    <linearGradient
       id="linearGradient67-6">
      <stop
         style="stop-color:#ed5353;stop-opacity:1"
         offset="0"
         id="stop67-7" />
      <stop
         style="stop-color:#cf3137;stop-opacity:1;"
         offset="0.53156751"
         id="stop7" />
      <stop
         style="stop-color:#7a0000;stop-opacity:1"
         offset="1"
         id="stop68-5" />
    </linearGradient>
    <linearGradient
       xlink:href="#linearGradient7"
       id="linearGradient9"
       x1="12.797753"
       y1="18.082996"
       x2="12.797753"
       y2="24.128637"
       gradientUnits="userSpaceOnUse"
       gradientTransform="matrix(1.7812502,0,0,1.8121626,6.9999925,5.7540127)" />
    <linearGradient
       id="linearGradient7">
      <stop
         style="stop-color:#a10705;stop-opacity:0.5;"
         offset="0"
         id="stop8" />
      <stop
         style="stop-color:#7a0000;stop-opacity:1"
         offset="1"
         id="stop9" />
    </linearGradient>
    <linearGradient
       xlink:href="#linearGradient12"
       id="linearGradient1"
       gradientUnits="userSpaceOnUse"
       gradientTransform="translate(-74.424668,-36.81781)"
       x1="144.47777"
       y1="103.47964"
       x2="144.47777"
       y2="81.504425" />
  </defs>
  <metadata
     id="metadata4384">
    <rdf:RDF>
      <cc:Work
         rdf:about="">
        <dc:format>image/svg+xml</dc:format>
        <dc:type
           rdf:resource="http://purl.org/dc/dcmitype/StillImage" />
      </cc:Work>
    </rdf:RDF>
  </metadata>
  <path
     d="M 119,118 A 55,6 0 0 1 9.0000016,118 55,6 0 1 1 119,118 Z"
     id="path3041"
     style="color:#000000;display:inline;overflow:visible;visibility:visible;opacity:0.2;fill:url(#radialGradient4377);fill-opacity:1;fill-rule:nonzero;stroke:none;stroke-width:1;marker:none;enable-background:accumulate" />
  <g
     transform="matrix(2.6999989,0,0,0.55555607,-0.8000019,94.888882)"
     id="g2036"
     style="display:inline">
    <g
       transform="matrix(1.052632,0,0,1.285713,-1.263158,-13.42854)"
       id="g3712"
       style="opacity:0.4">
      <rect
         width="5"
         height="7"
         x="38"
         y="40"
         id="rect2801"
         style="fill:url(#radialGradient2455-1);fill-opacity:1;stroke:none" />
      <rect
         width="5"
         height="7"
         x="-10"
         y="-47"
         transform="scale(-1,-1)"
         id="rect3696"
         style="fill:url(#radialGradient2457-5);fill-opacity:1;stroke:none" />
      <rect
         width="28"
         height="7.0000005"
         x="10"
         y="40"
         id="rect3700"
         style="fill:url(#linearGradient2459-7);fill-opacity:1;stroke:none" />
    </g>
  </g>
  <rect
     width="103"
     height="103"
     rx="10"
     ry="10"
     x="12.5"
     y="15.5"
     id="rect5505-21-3"
     style="color:#000000;display:inline;overflow:visible;visibility:visible;fill:url(#linearGradient882);fill-opacity:1;fill-rule:nonzero;stroke:none;stroke-width:1;marker:none;enable-background:accumulate" />
  <path
     id="path63-6-7-2"
     style="font-variation-settings:normal;baseline-shift:baseline;display:inline;overflow:visible;opacity:0.15;vector-effect:none;fill:#cfa25e;fill-opacity:1;stroke-width:1;stroke-linecap:round;stroke-linejoin:round;stroke-miterlimit:4;stroke-dasharray:none;stroke-dashoffset:0;stroke-opacity:1;-inkscape-stroke:none;enable-background:accumulate;stop-color:#000000;stop-opacity:1"
     d="M 73.867188 15.580078 C 73.79058 15.5828 73.712834 15.592986 73.630859 15.613281 L 56.013672 15.613281 L 60.457031 26.634766 L 12.5 43.585938 L 12.5 61.798828 C 12.606132 61.811241 12.71895 61.812376 12.837891 61.800781 L 67.150391 42.279297 L 77.121094 66.984375 C 77.702303 67.206803 78.248228 67.793563 78.888672 67.417969 L 92.292969 63.800781 L 97.712891 77.236328 C 98.294101 77.458758 98.84002 78.045498 99.480469 77.669922 C 104.82057 76.229108 110.15989 74.78847 115.5 73.347656 L 115.5 55.558594 C 115.38802 55.546115 115.2698 55.547626 115.14453 55.564453 L 93.484375 61.410156 L 83.408203 36.435547 L 115.19141 25.011719 C 115.29517 24.935705 115.38956 24.852475 115.47266 24.761719 C 115.37771 23.450085 115.03346 22.208646 114.48438 21.087891 C 112.30734 17.81607 108.50435 15.647847 104.54297 15.619141 C 99.828691 15.617741 95.110365 15.594659 90.398438 15.630859 C 87.222965 16.668106 84.093118 17.881332 80.935547 18.986328 L 76.945312 20.419922 L 75.257812 16.238281 C 74.819088 15.938017 74.403439 15.561023 73.867188 15.580078 z " />
  <path
     id="path63-6-7"
     style="font-variation-settings:normal;baseline-shift:baseline;display:inline;overflow:visible;opacity:0.2;vector-effect:none;fill:#b6802e;fill-opacity:1;stroke-width:1;stroke-linecap:round;stroke-linejoin:round;stroke-miterlimit:4;stroke-dasharray:none;stroke-dashoffset:0;stroke-opacity:1;-inkscape-stroke:none;enable-background:accumulate;stop-color:#000000;stop-opacity:1"
     d="M 56.927734 15.5 L 61.494141 26.853516 L 12.5 44.646484 L 12.5 60.859375 L 67.71875 41.011719 L 78.048828 66.609375 L 92.888672 62.605469 L 82.091797 35.845703 L 114.85352 24.070312 C 113.30788 19.715777 109.16125 16.613281 104.26367 16.613281 L 90.496094 16.613281 L 76.376953 21.6875 L 58.548828 15.5 L 56.927734 15.5 z M 92.888672 62.605469 L 98.640625 76.861328 L 115.5 72.3125 L 115.5 56.503906 L 92.888672 62.605469 z " />
  <path
     id="path64"
     style="font-variation-settings:normal;vector-effect:none;fill:url(#linearGradient65);fill-opacity:1;stroke:none;stroke-width:1;stroke-linecap:butt;stroke-linejoin:miter;stroke-miterlimit:4;stroke-dasharray:none;stroke-dashoffset:0;stroke-opacity:0.5;-inkscape-stroke:none;marker:none"
     d="M 86.56782,75.90277 12.5,95.796841 v 11.466799 c 0,6.22494 5.01142,11.23636 11.23636,11.23636 h 76.96104 z" />
  <path
     id="path3-5"
     style="font-variation-settings:normal;baseline-shift:baseline;display:inline;overflow:visible;opacity:0.15;vector-effect:none;fill:#3a9104;fill-opacity:1;stroke-width:1;stroke-linecap:round;stroke-linejoin:round;stroke-miterlimit:4;stroke-dasharray:none;stroke-dashoffset:0;stroke-opacity:1;-inkscape-stroke:none;enable-background:accumulate;stop-color:#000000;stop-opacity:1"
     d="m 77.029297,65.933594 c -0.15025,-0.0057 -0.304732,0.0272 -0.464844,0.121094 L 12.5,83.339844 V 101.22266 L 44.592513,92.5621 c 1.06642,-0.287787 2.19936,0.333163 2.530493,1.38693 2.57161,8.18366 5.143285,16.36731 7.714885,24.55097 H 72.933594 C 69.688593,108.17969 66.44422,97.859374 63.199219,87.539062 L 82.482422,82.335938 97.162109,118.5 H 105.5 c 3.54678,0 6.65126,-1.82852 8.42578,-4.59766 -0.16275,-0.50836 -0.45189,-0.99925 -0.61328,-1.50781 -4.7961,-11.88503 -9.59258,-23.769267 -14.388672,-35.654296 -0.509155,-0.395795 -1.023593,-0.773045 -1.703125,-0.644531 l -15.154297,-0.357422 -3.734375,-9.25 c -0.435907,-0.166822 -0.851984,-0.537699 -1.302734,-0.554687 z" />
  <path
     id="path3"
     style="font-variation-settings:normal;baseline-shift:baseline;display:inline;overflow:visible;opacity:0.3;vector-effect:none;fill:#3a9104;fill-opacity:1;stroke-width:1;stroke-linecap:round;stroke-linejoin:round;stroke-miterlimit:4;stroke-dasharray:none;stroke-dashoffset:0;stroke-opacity:1;-inkscape-stroke:none;enable-background:accumulate;stop-color:#000000;stop-opacity:1"
     d="M 77.404297,66.863281 12.5,84.375 v 15.8125 l 31.793064,-8.579706 a 3.1251453,3.1251453 28.727382 0 1 3.795664,2.080424 L 55.884766,118.5 H 71.886719 L 61.933594,86.845703 83.076172,81.140625 98.240234,118.5 H 105.5 c 2.51732,0 4.81217,-0.9207 6.56641,-2.44531 0.392,-0.44612 0.74843,-0.92481 1.0664,-1.42969 L 97.996094,77.115234 81.384766,76.722656 Z" />
  <path
     id="path63-6"
     style="baseline-shift:baseline;display:inline;overflow:visible;vector-effect:none;fill:#fafafa;stroke-width:1;stroke-linecap:round;stroke-linejoin:round;enable-background:accumulate;stop-color:#000000"
     d="M 90.49617,15.5 12.5,43.532387 V 59.74684 L 114.8526,22.95799 C 113.30696,18.603454 109.16121,15.5 104.26363,15.5 Z M 115.5,55.390554 12.5,83.181535 v 15.812109 l 31.471263,-8.493329 a 4.1668943,4.1668943 28.72636 0 1 5.060954,2.773818 L 56.95897,118.5 H 72.9613 L 62.57716,85.478553 115.5,71.199008 Z" />
  <path
     id="path58-3"
     style="baseline-shift:baseline;display:inline;overflow:visible;vector-effect:none;fill:#ffe16b;stroke-width:1;stroke-linecap:round;stroke-linejoin:round;enable-background:accumulate;stop-color:#000000"
     d="m 57.87341,15.5 41.56576,103 h 4.82446 c 4.01687,0 7.52783,-2.08845 9.51361,-5.24144 L 74.32927,15.5 Z" />
  <ellipse
     id="Shadow-6-7"
     fill="url(#radialGradient-9)"
     fill-rule="nonzero"
     opacity="0.580799"
     filter="url(#filter-10)"
     cx="186"
     cy="44.867226"
     rx="11.5"
     ry="5"
     style="opacity:0.3;fill:url(#radialGradient-9-0-5-6);stroke-width:0.533981;filter:url(#filter-10-6-6-8)"
     transform="matrix(1.8727273,0,0,1.8727273,-284.32728,5.0727273)" />
  <rect
     width="101"
     height="101"
     rx="9"
     ry="9"
     x="13.5"
     y="16.5"
     id="rect6741-7"
     style="opacity:0.4;fill:none;stroke:url(#linearGradient3159);stroke-width:1;stroke-linecap:round;stroke-linejoin:round;stroke-miterlimit:4;stroke-dasharray:none;stroke-dashoffset:0;stroke-opacity:1" />
  <rect
     width="103"
     height="103"
     rx="10"
     ry="10"
     x="12.5"
     y="15.5"
     id="rect5505-21-6"
     style="color:#000000;display:inline;overflow:visible;visibility:visible;opacity:0.5;fill:none;stroke:#b6802e;stroke-width:1;stroke-linecap:butt;stroke-linejoin:round;stroke-miterlimit:4;stroke-dasharray:none;stroke-dashoffset:0;stroke-opacity:1;marker:none;enable-background:accumulate;font-variation-settings:normal;vector-effect:none;fill-opacity:1;-inkscape-stroke:none;stop-color:#000000;stop-opacity:1" />
  <path
     id="rect52-9-1"
     style="font-variation-settings:normal;vector-effect:none;fill:#ed5353;fill-opacity:1;stroke:none;stroke-width:1.11651;stroke-linecap:round;stroke-linejoin:round;stroke-miterlimit:4;stroke-dasharray:none;stroke-dashoffset:0;stroke-opacity:0.5;-inkscape-stroke:none;filter:url(#filter2);opacity:0.55779334"
     d="m 63.998354,27.504241 c -15.741243,8.11e-4 -28.501841,12.978903 -28.502637,28.988441 -1.59e-4,8.13626 3.36149,15.898092 9.264013,21.390015 l 14.281547,14.527445 a 7.010366,7.1298512 0 0 0 9.914577,4.32e-4 L 83.240266,77.882697 C 89.142791,72.390776 92.50444,64.628944 92.504283,56.492682 92.503487,40.481836 79.740883,27.503202 63.998354,27.504241 Z"
     transform="matrix(0.96524876,0,0,0.83106287,2.2240795,16.617927)" />
  <path
     id="rect52-9-1-0"
     style="font-variation-settings:normal;opacity:0.2995919;mix-blend-mode:normal;vector-effect:none;fill:#a10705;fill-opacity:1;stroke:none;stroke-width:1.62788;stroke-linecap:round;stroke-linejoin:round;stroke-miterlimit:4;stroke-dasharray:none;stroke-dashoffset:0;stroke-opacity:0.5;-inkscape-stroke:none;filter:url(#filter2-0)"
     d="m 63.998354,27.504241 c -15.741243,8.11e-4 -28.501841,12.978903 -28.502637,28.988441 -1.59e-4,8.13626 3.36149,15.898092 9.264013,21.390015 l 14.281547,14.527445 a 7.010366,7.1298512 0 0 0 9.914577,4.32e-4 L 83.240266,77.882697 C 89.142791,72.390776 92.50444,64.628944 92.504283,56.492682 92.503487,40.481836 79.740883,27.503202 63.998354,27.504241 Z"
     transform="matrix(0.79149254,0,0,0.47676653,13.344477,51.293053)" />
  <path
     id="rect52-9"
     style="font-variation-settings:normal;vector-effect:none;fill:url(#linearGradient68-3);fill-opacity:1;stroke:url(#linearGradient9);stroke-width:0.55659197;stroke-linecap:round;stroke-linejoin:round;stroke-miterlimit:4;stroke-dasharray:none;stroke-dashoffset:0;stroke-opacity:1;-inkscape-stroke:none;opacity:1;stop-color:#000000;stop-opacity:1"
     d="M 31.999076,12 C 23.163215,12.000448 16.000447,19.163217 16,27.999078 c -8.9e-5,4.490502 1.886869,8.774353 5.200068,11.805413 l 8.016506,8.017876 c 1.536695,1.536957 4.028415,1.537064 5.565242,2.38e-4 L 42.79993,39.804491 C 46.11313,36.773432 48.000088,32.489581 48,27.999078 47.999553,19.162495 40.835659,11.999427 31.999076,12 Z"
     transform="matrix(1.7815177,0,0,1.811882,6.9914336,5.7616565)" />
  <path
     id="rect52-9-2"
     style="font-variation-settings:normal;vector-effect:none;fill:none;fill-opacity:1;stroke:url(#linearGradient69);stroke-width:1;stroke-linecap:round;stroke-linejoin:round;stroke-miterlimit:4;stroke-dasharray:none;stroke-dashoffset:0;stroke-opacity:1;-inkscape-stroke:none;opacity:0.3;stop-color:#000000;stop-opacity:1"
     d="m 62.559475,28.551735 c -10.105249,0.423288 -19.616179,7.073652 -23.662367,16.492993 -4.3363,9.545864 -2.682139,21.503464 4.06434,29.46903 3.561726,3.90726 7.403569,7.552162 11.065751,11.36657 2.334111,2.213546 4.371599,4.792519 6.925193,6.73917 2.602948,1.637818 6.099549,0.744626 7.978241,-1.610906 5.284657,-5.434296 10.691294,-10.754415 15.907585,-16.251933 6.707144,-7.754882 8.56292,-19.404345 4.604735,-28.916796 -3.789311,-9.605991 -13.197344,-16.591657 -23.366468,-17.23966 -1.169427,-0.100687 -2.345184,-0.09661 -3.51701,-0.04847 z" />
  <circle
     style="font-variation-settings:normal;vector-effect:none;fill:url(#linearGradient1);fill-opacity:1;stroke:none;stroke-width:1;stroke-linecap:round;stroke-linejoin:round;stroke-miterlimit:4;stroke-dasharray:none;stroke-dashoffset:0;stroke-opacity:1;-inkscape-stroke:none;marker:none;opacity:1;stop-color:#000000;stop-opacity:1"
     id="path73"
     cx="64"
     cy="56"
     r="11" />
  <circle
     style="font-variation-settings:normal;opacity:0.1;vector-effect:none;fill:#fafafa;fill-opacity:1;stroke:none;stroke-width:1;stroke-linecap:round;stroke-linejoin:round;stroke-miterlimit:4;stroke-dasharray:none;stroke-dashoffset:0;stroke-opacity:1;-inkscape-stroke:none;marker:none"
     id="path73-0"
     cx="64"
     cy="57"
     r="11" />
</svg>
