<?xml version="1.0" encoding="UTF-8" standalone="no"?>
<svg
   version="1.1"
   width="16"
   height="16"
   id="svg4372"
   xmlns:xlink="http://www.w3.org/1999/xlink"
   xmlns="http://www.w3.org/2000/svg"
   xmlns:svg="http://www.w3.org/2000/svg"
   xmlns:rdf="http://www.w3.org/1999/02/22-rdf-syntax-ns#"
   xmlns:cc="http://creativecommons.org/ns#"
   xmlns:dc="http://purl.org/dc/elements/1.1/">
  <defs
     id="defs4374">
    <linearGradient
       x1="23.99999"
       y1="7.222682"
       x2="23.99999"
       y2="40.912014"
       id="linearGradient3304"
       xlink:href="#linearGradient3924-4-8"
       gradientUnits="userSpaceOnUse"
       gradientTransform="matrix(0.2972973,0,0,0.2972973,0.86486906,0.8648672)" />
    <linearGradient
       id="linearGradient3924-4-8">
      <stop
         id="stop3926-0-4"
         style="stop-color:#ffffff;stop-opacity:1"
         offset="0" />
      <stop
         id="stop3928-6-8"
         style="stop-color:#ffffff;stop-opacity:0.23529412"
         offset="0.06316455" />
      <stop
         id="stop3930-2-1"
         style="stop-color:#ffffff;stop-opacity:0.15686275"
         offset="0.95056331" />
      <stop
         id="stop3932-9-0"
         style="stop-color:#ffffff;stop-opacity:0.39215687"
         offset="1" />
    </linearGradient>
    <linearGradient
       xlink:href="#linearGradient51"
       id="linearGradient867"
       x1="7.9050331"
       y1="1.5559154"
       x2="7.9050331"
       y2="14.459918"
       gradientUnits="userSpaceOnUse"
       gradientTransform="translate(-1.4305115e-6)" />
    <linearGradient
       id="linearGradient51">
      <stop
         id="stop50"
         style="stop-color:#efdfc4;stop-opacity:1"
         offset="0" />
      <stop
         id="stop51"
         style="stop-color:#e7c591;stop-opacity:1"
         offset="1" />
    </linearGradient>
    <radialGradient
       cx="9.6923532"
       cy="41.271797"
       fx="9.6923532"
       fy="41.271797"
       r="29.069305"
       gradientTransform="matrix(1.2896764,0,0,0.77538829,33.5,12.867224)"
       id="radialGradient-9-0-5-6"
       gradientUnits="userSpaceOnUse">
      <stop
         stop-color="#000000"
         offset="0%"
         id="stop20-9-0-0" />
      <stop
         stop-color="#000000"
         stop-opacity="0"
         offset="100%"
         id="stop21-3-3-4" />
    </radialGradient>
    <filter
       x="-0.20869565"
       y="-0.48"
       width="1.4173913"
       height="1.96"
       filterUnits="objectBoundingBox"
       id="filter-10-6-6-8">
      <feGaussianBlur
         stdDeviation="2"
         in="SourceGraphic"
         id="feGaussianBlur21-0-1-8" />
    </filter>
    <linearGradient
       xlink:href="#linearGradient67"
       id="linearGradient68"
       x1="31.99835"
       y1="12.05765"
       x2="31.99835"
       y2="49.640511"
       gradientUnits="userSpaceOnUse" />
    <linearGradient
       id="linearGradient67">
      <stop
         style="stop-color:#ed5353;stop-opacity:1"
         offset="0"
         id="stop67" />
      <stop
         style="stop-color:#c6262e;stop-opacity:1"
         offset="1"
         id="stop68" />
    </linearGradient>
    <linearGradient
       id="linearGradient72">
      <stop
         id="stop69"
         style="stop-color:#ffffff;stop-opacity:1"
         offset="0" />
      <stop
         id="stop70"
         style="stop-color:#ffffff;stop-opacity:0.23529412"
         offset="0.4065806" />
      <stop
         id="stop71"
         style="stop-color:#ffffff;stop-opacity:0.15686275"
         offset="0.72683871" />
      <stop
         id="stop72"
         style="stop-color:#ffffff;stop-opacity:0.39215687"
         offset="1" />
    </linearGradient>
    <linearGradient
       xlink:href="#linearGradient64"
       id="linearGradient65"
       x1="-7.6893487"
       y1="2.0664976"
       x2="-7.6893487"
       y2="14.457609"
       gradientUnits="userSpaceOnUse"
       gradientTransform="translate(14)" />
    <linearGradient
       id="linearGradient64">
      <stop
         style="stop-color:#9bdb4d;stop-opacity:1"
         offset="0"
         id="stop64" />
      <stop
         style="stop-color:#68b723;stop-opacity:1"
         offset="1"
         id="stop65" />
    </linearGradient>
    <linearGradient
       xlink:href="#linearGradient72"
       id="linearGradient69"
       gradientUnits="userSpaceOnUse"
       gradientTransform="matrix(0.33857494,0,0,0.33948513,-26.125797,-0.6203669)"
       x1="100.79244"
       y1="13.841264"
       x2="100.79244"
       y2="33.72438" />
  </defs>
  <metadata
     id="metadata4377">
    <rdf:RDF>
      <cc:Work
         rdf:about="">
        <dc:format>image/svg+xml</dc:format>
        <dc:type
           rdf:resource="http://purl.org/dc/dcmitype/StillImage" />
      </cc:Work>
    </rdf:RDF>
  </metadata>
  <rect
     width="13.000003"
     height="13.000003"
     rx="2"
     ry="2"
     x="1.4999986"
     y="1.4999986"
     id="rect5505-21-2"
     style="color:#000000;display:inline;overflow:visible;visibility:visible;fill:url(#linearGradient867);fill-rule:nonzero;stroke:none;stroke-width:1;marker:none;enable-background:accumulate" />
  <path
     id="path63-1"
     style="baseline-shift:baseline;display:inline;overflow:visible;vector-effect:none;fill:#d48e15;stroke-width:1;stroke-linecap:round;stroke-linejoin:round;enable-background:accumulate;stop-color:#000000;font-variation-settings:normal;opacity:0.3;fill-opacity:1;stroke-miterlimit:4;stroke-dasharray:none;stroke-dashoffset:0;stroke-opacity:1;-inkscape-stroke:none;stop-opacity:1"
     d="M 6.3183594 1.5 C 6.2821299 1.6788159 6.2955583 1.8690007 6.3691406 2.0507812 L 7.4589844 4.7519531 L 1.5 6.8945312 L 1.5 8.9414062 L 8.1796875 6.5390625 L 9.4804688 9.7617188 L 12.078125 11.054688 L 14.5 10.400391 L 14.5 8.4082031 L 11.353516 9.2578125 L 9.9941406 5.8886719 L 14.5 4.2675781 L 14.5 3.5 C 14.5 3.0727097 14.36717 2.6777892 14.140625 2.3535156 C 14.125501 2.3580793 14.110616 2.3618732 14.095703 2.3671875 L 9.2714844 4.1015625 L 8.2226562 1.5 L 6.3183594 1.5 z " />
  <path
     id="path1"
     style="font-variation-settings:normal;vector-effect:none;fill:url(#linearGradient65);fill-opacity:1;stroke:none;stroke-width:1;stroke-linecap:butt;stroke-linejoin:miter;stroke-miterlimit:4;stroke-dasharray:none;stroke-dashoffset:0;stroke-opacity:0.5;-inkscape-stroke:none;marker:none;stop-color:#000000"
     d="m 11.052734,9.0507812 c -0.454388,0 -7.0631129,1.8409558 -9.552734,2.5390628 V 12.5 c 0,1.108 0.892,2 2,2 h 9 c 0.26211,0 0.511248,-0.04974 0.740234,-0.140625 -0.60759,-1.870694 -1.77938,-5.3085938 -2.1875,-5.3085938 z" />
  <path
     id="path63-7"
     style="baseline-shift:baseline;display:inline;overflow:visible;vector-effect:none;fill:#3a9104;stroke-width:1;stroke-linecap:round;stroke-linejoin:round;enable-background:accumulate;stop-color:#000000;font-variation-settings:normal;opacity:0.3;fill-opacity:1;stroke-miterlimit:4;stroke-dasharray:none;stroke-dashoffset:0;stroke-opacity:1;-inkscape-stroke:none;stop-opacity:1"
     d="M 9.3867188 9.7089844 L 1.5 11.835938 L 1.5 12.5 C 1.5 12.960202 1.6547387 13.383462 1.9140625 13.720703 L 5.6875 12.701172 L 6.2519531 14.5 L 8.2714844 14.5 L 7.5488281 12.199219 L 10.113281 11.507812 L 11.320312 14.5 L 12.5 14.5 C 12.794175 14.5 13.073147 14.437323 13.324219 14.324219 L 11.984375 11.001953 L 9.3867188 9.7089844 z " />
  <path
     id="path63"
     style="baseline-shift:baseline;display:inline;overflow:visible;vector-effect:none;fill:#fafafa;stroke-width:0.999998;stroke-linecap:round;stroke-linejoin:round;enable-background:accumulate;stop-color:#000000"
     d="M 13.191406 1.6210938 L 1.5 5.8242188 L 1.5 7.8710938 L 14.478516 3.2050781 C 14.371353 2.4718034 13.869047 1.8694694 13.193359 1.6210938 L 13.191406 1.6210938 z M 14.5 7.2871094 L 1.5 10.794922 L 1.5 12.5 C 1.5 12.595862 1.5066151 12.691013 1.5195312 12.783203 L 6.3476562 11.480469 L 7.296875 14.5 L 9.3144531 14.5 L 8.2089844 10.978516 L 14.5 9.28125 L 14.5 7.2871094 z " />
  <path
     id="path58"
     style="baseline-shift:baseline;display:inline;overflow:visible;vector-effect:none;fill:#ffe16b;stroke-width:0.999998;stroke-linecap:round;stroke-linejoin:round;enable-background:accumulate;stop-color:#000000"
     d="M 7.2265625 1.5 L 12.472656 14.5 L 12.5 14.5 C 13.2061 14.5 13.825939 14.137451 14.181641 13.587891 L 14.181641 13.585938 L 9.3027344 1.5 L 7.2265625 1.5 z " />
  <ellipse
     id="Shadow-6-7"
     fill="url(#radialGradient-9)"
     fill-rule="nonzero"
     opacity="0.580799"
     filter="url(#filter-10)"
     cx="46"
     cy="44.867226"
     rx="11.5"
     ry="5"
     style="opacity:0.3;fill:url(#radialGradient-9-0-5-6);stroke-width:4.23077;filter:url(#filter-10-6-6-8)"
     transform="matrix(0.23636364,0,0,0.23636364,-2.872727,0.4363636)" />
  <rect
     width="11"
     height="11"
     x="2.5"
     y="2.4999969"
     id="rect6741-0-3-5"
     style="opacity:0.4;fill:none;stroke:url(#linearGradient3304);stroke-width:1;stroke-linecap:round;stroke-linejoin:round;stroke-miterlimit:4;stroke-dasharray:none;stroke-dashoffset:0;stroke-opacity:1"
     rx="1"
     ry="1" />
  <rect
     width="13.000003"
     height="13.000003"
     rx="2"
     ry="2"
     x="1.5"
     y="1.499997"
     id="rect5505-21-2-8"
     style="color:#000000;display:inline;overflow:visible;visibility:visible;opacity:0.5;fill:none;stroke:#b6802e;stroke-width:1;stroke-linecap:butt;stroke-linejoin:round;stroke-miterlimit:4;stroke-dasharray:none;stroke-dashoffset:0;stroke-opacity:1;marker:none;enable-background:accumulate;font-variation-settings:normal;vector-effect:none;fill-opacity:1;-inkscape-stroke:none;stop-color:#000000;stop-opacity:1" />
  <g
     id="g1"
     transform="translate(0,-1)">
    <path
       id="rect52-9"
       style="font-variation-settings:normal;vector-effect:none;fill:url(#linearGradient68);fill-opacity:1;stroke:#a10705;stroke-width:3.62549;stroke-linecap:round;stroke-linejoin:round;stroke-miterlimit:4;stroke-dasharray:none;stroke-dashoffset:0;stroke-opacity:0.5;-inkscape-stroke:none"
       d="M 31.999076,12 C 23.163215,12.000448 16.000447,19.163217 16,27.999078 c -8.9e-5,4.490502 1.886869,8.774353 5.200068,11.805413 l 8.016506,8.017876 a 3.9350527,3.9350527 0.00244835 0 0 5.565242,2.38e-4 L 42.79993,39.804491 C 46.11313,36.773432 48.000088,32.489581 48,27.999078 47.999553,19.162495 40.835659,11.999427 31.999076,12 Z"
       transform="matrix(0.2806997,0,0,0.27103146,-0.9823904,-0.76106659)" />
    <path
       id="rect52-9-3"
       style="font-variation-settings:normal;opacity:0.3;vector-effect:none;fill:none;fill-opacity:1;stroke:url(#linearGradient69);stroke-width:1;stroke-linecap:round;stroke-linejoin:round;stroke-miterlimit:4;stroke-dasharray:none;stroke-dashoffset:0;stroke-opacity:1;-inkscape-stroke:none;stop-color:#000000;stop-opacity:1"
       d="M 7.8141462,3.4790935 C 6.4072271,3.5319552 5.1070053,4.5046993 4.6923425,5.802151 4.2678022,7.0340259 4.6776591,8.4768412 5.6880652,9.3322084 6.4459025,10.056524 7.1892621,10.796534 7.9561407,11.511047 8.1155531,11.544245 8.2015309,11.330424 8.3208813,11.254736 9.0897077,10.505185 9.8741581,9.7694841 10.634174,9.0122181 11.571358,7.98649 11.742007,6.3929083 11.039689,5.2046112 10.416108,4.0958118 9.1196872,3.3989582 7.8141462,3.4790935 Z" />
    <circle
       style="font-variation-settings:normal;vector-effect:none;fill:#a10705;fill-opacity:1;stroke:none;stroke-width:1;stroke-linecap:round;stroke-linejoin:round;stroke-miterlimit:4;stroke-dasharray:none;stroke-dashoffset:0;stroke-opacity:1;-inkscape-stroke:none;marker:none"
       id="path73"
       cx="8.0817928"
       cy="7"
       r="1.4999999" />
    <circle
       style="font-variation-settings:normal;opacity:0.1;vector-effect:none;fill:#fafafa;fill-opacity:1;stroke:none;stroke-width:1;stroke-linecap:round;stroke-linejoin:round;stroke-miterlimit:4;stroke-dasharray:none;stroke-dashoffset:0;stroke-opacity:1;-inkscape-stroke:none;marker:none"
       id="path73-0"
       cx="8.0817928"
       cy="8"
       r="1.4999999" />
  </g>
</svg>
