<?xml version="1.0" encoding="UTF-8"?>
<svg width="32px" height="32px" viewBox="0 0 32 32" version="1.1" xmlns="http://www.w3.org/2000/svg" xmlns:xlink="http://www.w3.org/1999/xlink">
    <title>32</title>
    <defs>
        <radialGradient cx="-0.14038738%" cy="50.0000031%" fx="-0.14038738%" fy="50.0000031%" r="100.140387%" gradientTransform="translate(-0.001404,0.500000),scale(1.000000,0.450149),translate(0.001404,-0.500000)" id="radialGradient-1">
            <stop stop-color="#181818" offset="0%"></stop>
            <stop stop-color="#181818" stop-opacity="0" offset="100%"></stop>
        </radialGradient>
        <linearGradient x1="53.7789185%" y1="96.0674417%" x2="53.7789185%" y2="-0.00795714233%" id="linearGradient-2">
            <stop stop-color="#181818" stop-opacity="0" offset="0%"></stop>
            <stop stop-color="#181818" offset="50%"></stop>
            <stop stop-color="#181818" stop-opacity="0" offset="100%"></stop>
        </linearGradient>
        <linearGradient x1="48.9045%" y1="0.395456311%" x2="48.9045%" y2="99.9291165%" id="linearGradient-3">
            <stop stop-color="#FFF9C7" offset="0%"></stop>
            <stop stop-color="#CCCCCC" offset="100%"></stop>
        </linearGradient>
        <linearGradient x1="50%" y1="0%" x2="50%" y2="100%" id="linearGradient-4">
            <stop stop-color="#FFF394" offset="0%"></stop>
            <stop stop-color="#FFE16B" offset="100%"></stop>
        </linearGradient>
        <linearGradient x1="50%" y1="0%" x2="50%" y2="100%" id="linearGradient-5">
            <stop stop-color="#9BDB4D" offset="0%"></stop>
            <stop stop-color="#68B723" offset="100%"></stop>
        </linearGradient>
        <linearGradient x1="50%" y1="0%" x2="50%" y2="100%" id="linearGradient-6">
            <stop stop-color="#FFF394" offset="0%"></stop>
            <stop stop-color="#FFE16B" offset="100%"></stop>
        </linearGradient>
        <linearGradient x1="-30.9477844%" y1="50%" x2="100%" y2="50%" id="linearGradient-7">
            <stop stop-color="#FFC27D" offset="0%"></stop>
            <stop stop-color="#CC3B02" offset="100%"></stop>
        </linearGradient>
        <radialGradient cx="49.9999992%" cy="50.0085019%" fx="49.9999992%" fy="50.0085019%" r="139.999996%" gradientTransform="translate(0.500000,0.500085),scale(0.357143,1.000000),translate(-0.500000,-0.500085)" id="radialGradient-8">
            <stop stop-color="#000000" offset="0%"></stop>
            <stop stop-color="#000000" stop-opacity="0" offset="100%"></stop>
        </radialGradient>
        <filter x="-42.9%" y="-120.0%" width="185.7%" height="340.0%" filterUnits="objectBoundingBox" id="filter-9">
            <feGaussianBlur stdDeviation="2" in="SourceGraphic"></feGaussianBlur>
        </filter>
        <linearGradient x1="50%" y1="0%" x2="50%" y2="100%" id="linearGradient-10">
            <stop stop-color="#FF8C82" offset="1.74278846%"></stop>
            <stop stop-color="#C6262E" offset="100%"></stop>
        </linearGradient>
        <linearGradient x1="50%" y1="0%" x2="50%" y2="100%" id="linearGradient-11">
            <stop stop-color="#FAFAFA" stop-opacity="0.296984266" offset="0%"></stop>
            <stop stop-color="#FFFFFF" stop-opacity="0.10393903" offset="100%"></stop>
        </linearGradient>
        <linearGradient x1="50%" y1="100%" x2="50%" y2="9.76491615e-14%" id="linearGradient-12">
            <stop stop-color="#A10705" offset="0%"></stop>
            <stop stop-color="#7A0000" offset="100%"></stop>
        </linearGradient>
        <linearGradient x1="49.9999701%" y1="2.0000015%" x2="49.9999701%" y2="98.0000062%" id="linearGradient-13">
            <stop stop-color="#FFFFFF" offset="0%"></stop>
            <stop stop-color="#FFFFFF" stop-opacity="0.23529412" offset="4.166666%"></stop>
            <stop stop-color="#FFFFFF" stop-opacity="0.15686275" offset="95.833325%"></stop>
            <stop stop-color="#FFFFFF" stop-opacity="0.39215687" offset="100%"></stop>
        </linearGradient>
    </defs>
    <g id="32" stroke="none" stroke-width="1" fill="none" fill-rule="evenodd">
        <g id="Base-Shadow" transform="translate(1.000000, 26.000000)" fill-rule="nonzero" opacity="0.6">
            <rect id="Base-Right-Shadow" fill="url(#radialGradient-1)" x="25" y="0" width="5" height="5"></rect>
            <rect id="Base-Left-Shadow" fill="url(#radialGradient-1)" transform="translate(2.500000, 2.500000) rotate(180.000000) translate(-2.500000, -2.500000) " x="0" y="0" width="5" height="5"></rect>
            <rect id="Base-Middle-Shadow" fill="url(#linearGradient-2)" x="5" y="0" width="20" height="5"></rect>
        </g>
        <rect id="Base-Square-Fill" fill="url(#linearGradient-3)" fill-rule="nonzero" x="2.4999962" y="2" width="27.000008" height="27.000008" rx="3"></rect>
        <g id="Yellow-Path-2" transform="translate(3.000000, 11.000000)">
            <polyline id="Shadow-2" fill-opacity="0.07" fill="#000000" points="3.28813823e-15 11.0421025 26 1 26 3.3513772 12.9658297 8.62134044 23.8741813 18 20.0602971 18 9.98693062 9.57606456 4.28591858e-16 13.3659441"></polyline>
            <polyline id="Shadow-1" fill-opacity="0.15" fill="#000000" points="3.28813823e-15 11.0421025 26 1 26 3.3513772 12.9658297 8.62134044 23.8741813 18 20.0602971 18 9.98693062 9.57606456 4.28591858e-16 13.3659441"></polyline>
            <path d="M0,10.0421025 L26,0 L26,2.3513772 L12.9658297,7.62134044 L23.8741813,17 L20.0602971,17 L9.98693062,8.57606456 L0,12.3659441" id="Main-Path" stroke="#F9C440" stroke-width="0.5" fill="url(#linearGradient-4)"></path>
        </g>
        <path d="M3.01693531,22.1483735 C2.6447133,22.5765057 8.48052317,19.8752706 13.4028584,19.1357546 C15.8331814,18.7706307 17.2356456,19.1420313 17.6102511,20.2499567 C18.0733554,21.6262193 18.8641391,22.8690066 19.9129842,23.8732403 L24.9999962,28.7392934 L24.9999962,28.7392934 C20.2236045,28.4886374 16.6647042,28.4088729 14.3232955,28.5 C12.7544397,28.5610595 9.95836472,28.4240778 6.89515615,28.7392934 C6.89235248,28.739582 6.78676039,28.7597197 6.57837991,28.7997066 L6.57837569,28.7996846 C4.81993238,29.137119 3.12088779,27.9851637 2.78345338,26.2267204 C2.72224488,25.9077497 2.70931454,25.5813922 2.74509546,25.2585788 C2.74509546,25.2585788 2.74509546,25.2585788 2.74509546,25.2585788 C2.95549107,23.3604012 3.16852668,21.9740122 3.01693531,22.1483735 Z" id="Green-Park" fill="url(#linearGradient-5)"></path>
        <g id="Yellow-Path-1" transform="translate(2.000000, 1.042822)">
            <polygon id="Shadow-2" fill-opacity="0.07" fill="#000000" transform="translate(12.323295, 6.053146) rotate(-22.000000) translate(-12.323295, -6.053146) " points="0.502623474 5.00304712 19.9523463 4.80555842 25.1103397 6.80464539 -0.463748769 7.30073343"></polygon>
            <polygon id="Shadow-1" fill-opacity="0.15" fill="#000000" transform="translate(12.097926, 5.898280) rotate(-22.000000) translate(-12.097926, -5.898280) " points="0.502651177 4.84711562 19.5819122 4.65186723 24.6414271 6.65154974 -0.445574711 7.14469219"></polygon>
            <polygon id="Main-Path" stroke="#F9C440" stroke-width="0.5" fill="url(#linearGradient-6)" transform="translate(11.849616, 5.752811) rotate(-22.000000) translate(-11.849616, -5.752811) " points="0.502681701 4.70047358 19.17377 4.50769354 24.1247819 6.50803221 -0.425550638 6.99792923"></polygon>
        </g>
        <g id="Orange-Path" transform="translate(6.207139, 0.951343)">
            <polygon id="Shadow-2" fill-opacity="0.07" fill="#000000" transform="translate(12.339556, 11.063678) rotate(41.000000) translate(-12.339556, -11.063678) " points="0.154351633 9.80431316 24.9819991 9.662598 27.4716873 12.4647571 -2.79257602 12.3128984"></polygon>
            <polygon id="Shadow-1" fill-opacity="0.15" fill="#000000" transform="translate(12.428857, 10.907485) rotate(41.000000) translate(-12.428857, -10.907485) " points="0.339067931 9.646031 24.9727403 9.50630414 27.4427507 12.308665 -2.58503592 12.1543823"></polygon>
            <path d="M24.7301543,9.90626517 L26.2909792,11.7017889 L-0.900933513,11.5563639 L0.843139971,10.0402639 L24.7301543,9.90626517 Z" id="Main-Path" stroke="#CC3B02" fill="url(#linearGradient-7)" transform="translate(12.581592, 10.806338) rotate(41.000000) translate(-12.581592, -10.806338) "></path>
        </g>
        <g id="Pin" transform="translate(9.000000, 7.000000)">
            <ellipse id="Shadow" fill="url(#radialGradient-8)" fill-rule="nonzero" opacity="0.580798921" filter="url(#filter-9)" cx="7" cy="13.5" rx="7" ry="2.5"></ellipse>
            <path d="M6.5,0.5 C7.88710782,0.5 9.14471645,1.00342208 10.0543553,1.82320394 C10.9441852,2.62513365 11.5,3.73142708 11.5,4.95669273 C11.5,5.40006664 11.427365,5.82815158 11.2930542,6.22938051 C11.0939995,6.81401086 10.9375222,7.22414354 10.821483,7.45820893 C10.0933725,8.9268981 9.43917837,9.94343885 8.96709279,10.6774977 C8.30917183,11.7059766 7.48491486,12.8192983 6.38757761,14.1852455 C5.41822375,12.8776514 4.67052734,11.7908459 4.14419899,10.9226465 C3.44676046,9.78682529 2.82036826,8.769614 2.19290072,7.46374527 C2.11245786,7.29632972 2.02098507,7.05791877 1.91660669,6.74931366 C1.64059742,6.16011603 1.5,5.57321612 1.5,4.95669273 C1.5,3.73142708 2.0558148,2.62513365 2.9456447,1.82320394 C3.85528355,1.00342208 5.11289218,0.5 6.5,0.5 Z" id="Pin-Shape" stroke="url(#linearGradient-11)" fill="url(#linearGradient-10)"></path>
            <path d="M6.5,-0.5 C8.1504583,-0.5 9.64284967,0.106171386 10.7238193,1.08035943 C11.8245979,2.07239964 12.5,3.44445258 12.5,4.95669273 C12.5,5.51044795 12.4092819,6.04510787 12.2396885,6.55169012 C12.0206292,7.19507457 11.8450843,7.64487541 11.7174262,7.90237757 C10.9675192,9.41503295 10.2943798,10.4623919 9.80947781,11.2163738 C9.05644957,12.3935269 8.09164718,13.6802692 6.75974309,15.3157369 C6.62252055,15.4842347 6.48813393,15.6481672 6.35636471,15.8073558 C6.23077324,15.6427678 6.10280695,15.4738374 5.97246972,15.3005662 C4.78939761,13.7277822 3.89577888,12.4418524 3.29202926,11.4459119 C2.57653814,10.280691 1.93523798,9.23646146 1.29155291,7.89684124 C1.20069085,7.70774154 1.09574324,7.44124293 0.978397524,7.09661178 C0.669854494,6.43707535 0.5,5.71474628 0.5,4.95669273 C0.5,3.44445258 1.17540214,2.07239964 2.27618071,1.08035943 C3.35715033,0.106171386 4.8495417,-0.5 6.5,-0.5 Z" id="Pin-Shape" stroke="#C6262E"></path>
            <circle id="Pin-Oval-Highlight" fill-opacity="0.4" fill="#FFFFFF" cx="6.5" cy="6.5" r="2.5"></circle>
            <circle id="Pin-Oval" fill="url(#linearGradient-12)" cx="6.5" cy="5.5" r="2.5"></circle>
            <path d="M6.5,4 C7.88071187,4 9,4.82081129 9,5.83333333 C9,5.86156163 8.99913003,5.88964092 8.99740869,5.91755756 L9,6 C9,4.98747796 7.88071187,4.16666667 6.5,4.16666667 C5.157323,4.16666667 4.0618651,4.94287857 4.00253019,5.91677286 L4,5.83333333 C4,4.82081129 5.11928813,4 6.5,4 Z" id="Pin-Oval-Inset-2" fill-opacity="0.14" fill="#000000"></path>
            <path d="M6.5,4 C7.88071187,4 9,4.82086566 9,5.83345476 C9,5.88986258 8.99652661,5.94567544 8.98972812,6.00078458 C8.8752557,5.06583994 7.80426621,4.33335541 6.5,4.33335541 C5.19573379,4.33335541 4.1247443,5.06583994 4.01014789,6.00048853 C4.00347339,5.94567544 4,5.88986258 4,5.83345476 C4,4.82086566 5.11928813,4 6.5,4 Z" id="Pin-Oval-Inset-1" fill-opacity="0.07" fill="#000000"></path>
        </g>
        <rect id="Base-Square-Border" stroke="#7D7D7D" opacity="0.695079985" stroke-linecap="round" stroke-linejoin="round" x="2.4999962" y="2" width="27.000008" height="27.000008" rx="3"></rect>
        <rect id="Base-Edge-Highlight" stroke="url(#linearGradient-13)" opacity="0.35" stroke-linecap="round" stroke-linejoin="round" x="3.5" y="3.0000036" width="25" height="25" rx="2"></rect>
    </g>
</svg>