<?xml version="1.0" encoding="UTF-8" standalone="no"?>
<svg
   version="1.1"
   id="svg4332"
   height="32"
   width="32"
   xml:space="preserve"
   xmlns:xlink="http://www.w3.org/1999/xlink"
   xmlns="http://www.w3.org/2000/svg"
   xmlns:svg="http://www.w3.org/2000/svg"
   xmlns:rdf="http://www.w3.org/1999/02/22-rdf-syntax-ns#"
   xmlns:cc="http://creativecommons.org/ns#"
   xmlns:dc="http://purl.org/dc/elements/1.1/"><defs
     id="defs4334"><linearGradient
       id="linearGradient72"><stop
         id="stop69"
         style="stop-color:#ffffff;stop-opacity:1"
         offset="0" /><stop
         id="stop70"
         style="stop-color:#ffffff;stop-opacity:0.23529412"
         offset="0.4065806" /><stop
         id="stop71"
         style="stop-color:#ffffff;stop-opacity:0.15686275"
         offset="0.72683871" /><stop
         id="stop72"
         style="stop-color:#ffffff;stop-opacity:0.39215687"
         offset="1" /></linearGradient><linearGradient
       id="linearGradient67"><stop
         style="stop-color:#ed5353;stop-opacity:1"
         offset="0"
         id="stop67" /><stop
         style="stop-color:#c6262e;stop-opacity:1"
         offset="1"
         id="stop68" /></linearGradient><linearGradient
       id="linearGradient64"><stop
         style="stop-color:#9bdb4d;stop-opacity:1"
         offset="0"
         id="stop64" /><stop
         style="stop-color:#68b723;stop-opacity:1"
         offset="1"
         id="stop65" /></linearGradient><linearGradient
       id="linearGradient51"><stop
         id="stop50"
         style="stop-color:#efdfc4;stop-opacity:1"
         offset="0" /><stop
         id="stop51"
         style="stop-color:#d4d4d4;stop-opacity:1"
         offset="1" /></linearGradient><linearGradient
       id="linearGradient31"><stop
         style="stop-color:#b6802e;stop-opacity:1"
         offset="0"
         id="stop31" /><stop
         style="stop-color:#7e8087;stop-opacity:1"
         offset="1"
         id="stop32" /></linearGradient><linearGradient
       id="linearGradient3688-166-749-654"><stop
         offset="0"
         style="stop-color:#181818;stop-opacity:1"
         id="stop3088" /><stop
         offset="1"
         style="stop-color:#181818;stop-opacity:0"
         id="stop3090" /></linearGradient><linearGradient
       id="linearGradient3702-501-757-795"><stop
         offset="0"
         style="stop-color:#181818;stop-opacity:0"
         id="stop3100" /><stop
         offset="0.5"
         style="stop-color:#181818;stop-opacity:1"
         id="stop3102" /><stop
         offset="1"
         style="stop-color:#181818;stop-opacity:0"
         id="stop3104" /></linearGradient><linearGradient
       x1="23.99999"
       y1="6.2399855"
       x2="23.99999"
       y2="41.759987"
       id="linearGradient4161-0-2"
       xlink:href="#linearGradient3924-0"
       gradientUnits="userSpaceOnUse"
       gradientTransform="matrix(0.67567568,0,0,0.67567568,-0.21621,-0.21620614)" /><linearGradient
       id="linearGradient3924-0"><stop
         id="stop3926-6"
         style="stop-color:#ffffff;stop-opacity:1"
         offset="0" /><stop
         id="stop3928-3"
         style="stop-color:#ffffff;stop-opacity:0.23529412"
         offset="0.04166666" /><stop
         id="stop3930-2"
         style="stop-color:#ffffff;stop-opacity:0.15686275"
         offset="0.95833325" /><stop
         id="stop3932-62"
         style="stop-color:#ffffff;stop-opacity:0.39215687"
         offset="1" /></linearGradient><linearGradient
       xlink:href="#linearGradient51"
       id="linearGradient930-9-2"
       x1="16.767664"
       y1="2.7676599"
       x2="16.767664"
       y2="29.896721"
       gradientUnits="userSpaceOnUse" /><radialGradient
       cx="4.9929786"
       cy="43.5"
       r="2.5"
       fx="4.9929786"
       fy="43.5"
       id="radialGradient2976-3-3"
       xlink:href="#linearGradient3688-166-749-654"
       gradientUnits="userSpaceOnUse"
       gradientTransform="matrix(2.003784,0,0,1.4,27.98813,-17.4)" /><radialGradient
       cx="4.9929786"
       cy="43.5"
       r="2.5"
       fx="4.9929786"
       fy="43.5"
       id="radialGradient2978-2-5"
       xlink:href="#linearGradient3688-166-749-654"
       gradientUnits="userSpaceOnUse"
       gradientTransform="matrix(2.003784,0,0,1.4,-20.01187,-104.4)" /><linearGradient
       xlink:href="#linearGradient3702-501-757-795"
       id="linearGradient963"
       gradientUnits="userSpaceOnUse"
       x1="25.058096"
       y1="47.027729"
       x2="25.058096"
       y2="39.999443" /><linearGradient
       xlink:href="#linearGradient67"
       id="linearGradient68"
       x1="31.99835"
       y1="12.05765"
       x2="31.99835"
       y2="49.640511"
       gradientUnits="userSpaceOnUse" /><radialGradient
       cx="9.6923532"
       cy="41.271797"
       fx="9.6923532"
       fy="41.271797"
       r="29.069305"
       gradientTransform="matrix(1.2896764,0,0,0.77538829,54.28695,10.867224)"
       id="radialGradient-9-0-5-6"
       gradientUnits="userSpaceOnUse"><stop
         stop-color="#000000"
         offset="0%"
         id="stop20-9-0-0" /><stop
         stop-color="#000000"
         stop-opacity="0"
         offset="100%"
         id="stop21-3-3-4" /></radialGradient><filter
       x="-0.20869565"
       y="-0.48"
       width="1.4173913"
       height="1.96"
       filterUnits="objectBoundingBox"
       id="filter-10-6-6-8"><feGaussianBlur
         stdDeviation="2"
         in="SourceGraphic"
         id="feGaussianBlur21-0-1-8" /></filter><linearGradient
       xlink:href="#linearGradient31"
       id="linearGradient1"
       gradientUnits="userSpaceOnUse"
       gradientTransform="translate(34.78695,-2)"
       x1="-18.521976"
       y1="5.0819154"
       x2="-18.521976"
       y2="31.155853" /><linearGradient
       xlink:href="#linearGradient64"
       id="linearGradient2"
       gradientUnits="userSpaceOnUse"
       gradientTransform="translate(34.78695,-2)"
       x1="-17.894684"
       y1="4.9417"
       x2="-17.894684"
       y2="31.919863" /><linearGradient
       xlink:href="#linearGradient72"
       id="linearGradient69"
       gradientUnits="userSpaceOnUse"
       gradientTransform="matrix(0.70319409,0,0,0.70508448,-26.967133,-1.9038388)"
       x1="61.018574"
       y1="12.600277"
       x2="61.018574"
       y2="32.466347" /></defs><metadata
     id="metadata4337"><rdf:RDF><cc:Work
         rdf:about=""><dc:format>image/svg+xml</dc:format><dc:type
           rdf:resource="http://purl.org/dc/dcmitype/StillImage" /></cc:Work></rdf:RDF></metadata><g
     style="display:inline"
     id="g2036-2-8-6"
     transform="matrix(0.6999997,0,0,0.3333336,-0.8,15.33333)"><g
       style="opacity:0.4"
       id="g3712-3-7-0"
       transform="matrix(1.052632,0,0,1.285713,-1.263158,-13.42854)"><rect
         style="fill:url(#radialGradient2976-3-3);fill-opacity:1;stroke:none"
         id="rect2801-0-9-6"
         y="40"
         x="38"
         height="7"
         width="5" /><rect
         style="fill:url(#radialGradient2978-2-5);fill-opacity:1;stroke:none"
         id="rect3696-2-2-2"
         transform="scale(-1)"
         y="-47"
         x="-10"
         height="7"
         width="5" /><rect
         style="fill:url(#linearGradient963);fill-opacity:1;stroke:none"
         id="rect3700-1-0-6"
         y="40"
         x="10"
         height="7.0000005"
         width="28" /></g></g><rect
     style="color:#000000;font-variation-settings:normal;display:inline;overflow:visible;visibility:visible;vector-effect:none;fill:url(#linearGradient930-9-2);fill-opacity:1;fill-rule:nonzero;stroke:none;stroke-width:1;stroke-linecap:butt;stroke-linejoin:miter;stroke-miterlimit:4;stroke-dasharray:none;stroke-dashoffset:0;stroke-opacity:0.5;marker:none;enable-background:accumulate;stop-color:#000000"
     id="rect5505-21-1-2-1"
     y="2.4999962"
     x="2.5"
     ry="3"
     rx="3"
     height="27.000008"
     width="27.000008" /><path
     id="path1"
     style="font-variation-settings:normal;opacity:1;vector-effect:none;fill:url(#linearGradient2);fill-opacity:1;stroke:none;stroke-width:1;stroke-linecap:butt;stroke-linejoin:miter;stroke-miterlimit:4;stroke-dasharray:none;stroke-dashoffset:0;stroke-opacity:0.5;-inkscape-stroke:none;marker:none;stop-color:#000000;stop-opacity:1"
     d="M 22.539062 18.384766 L 2.5 23.291016 L 2.5 26.5 C 2.5 28.162 3.838 29.5 5.5 29.5 L 26.5 29.5 C 26.644469 29.5 26.786875 29.490257 26.925781 29.470703 L 22.539062 18.384766 z " /><path
     style="baseline-shift:baseline;display:inline;overflow:visible;vector-effect:none;fill:#ffe16b;stroke-linecap:round;stroke-linejoin:round;enable-background:accumulate;stop-color:#000000"
     d="M 15.643142,0.25132743 29.889823,35.555088"
     id="path57" /><path
     id="path3-9-3"
     style="font-variation-settings:normal;baseline-shift:baseline;display:inline;overflow:visible;opacity:0.15;vector-effect:none;fill:#3a9104;fill-opacity:1;stroke-width:1;stroke-linecap:round;stroke-linejoin:round;stroke-miterlimit:4;stroke-dasharray:none;stroke-dashoffset:0;stroke-opacity:1;-inkscape-stroke:none;enable-background:accumulate;stop-color:#000000;stop-opacity:1"
     d="m 19.876953,17.083984 c -0.15025,-0.0057 -0.304732,0.0272 -0.464844,0.121094 L 2.5,21.767578 V 26.5 c 0,0.502437 0.1213446,0.975424 0.3378906,1.390625 L 11.405614,25.559942 12.638888,29.5 l 6.825956,0 -1.765625,-5.619141 c 0.961119,-0.27989 1.947994,-0.512186 2.916015,-0.779297 0.861701,2.132877 1.72449,4.265593 2.585938,6.398438 H 26.5 c 0.564205,0 1.091157,-0.155109 1.541016,-0.423828 -2.02147,-2.882869 -4.170444,-5.6601 -5.357422,-7.166016 0.05984,-0.257508 0.02701,-0.540401 -0.107422,-0.8125 L 21.179688,17.638672 C 20.74378,17.471849 20.327703,17.10097 19.876953,17.083984 Z" /><path
     id="path3-9"
     style="font-variation-settings:normal;baseline-shift:baseline;display:inline;overflow:visible;opacity:0.3;vector-effect:none;fill:#3a9104;fill-opacity:1;stroke-width:1;stroke-linecap:round;stroke-linejoin:round;stroke-miterlimit:4;stroke-dasharray:none;stroke-dashoffset:0;stroke-opacity:1;-inkscape-stroke:none;enable-background:accumulate;stop-color:#000000;stop-opacity:1"
     d="M 20.945312,17.833984 2.5,22.804688 V 26.5 c 0,0.149192 0.01042,0.296216 0.03125,0.439453 l 9.203536,-2.490834 a 0.26071908,0.26071908 28.653957 0 1 0.316696,0.173056 L 13.594144,29.5 h 4.823825 L 16.433594,23.1875 21.212891,21.904297 24.277344,29.5 H 26.5 c 0.172953,0 0.343019,-0.01513 0.507812,-0.04297 l -4.726562,-7.839843 0.171875,-0.04688 z" /><path
     id="path2-2-2"
     style="font-variation-settings:normal;baseline-shift:baseline;display:inline;overflow:visible;opacity:0.15;vector-effect:none;fill:#cfa25e;fill-opacity:1;stroke-width:1;stroke-linecap:round;stroke-linejoin:round;stroke-miterlimit:4;stroke-dasharray:none;stroke-dashoffset:0;stroke-opacity:1;-inkscape-stroke:none;enable-background:accumulate;stop-color:#000000;stop-opacity:1"
     d="M 12.664062 2.5 C 12.622621 2.9010413 12.664652 3.3120854 12.808594 3.7070312 C 13.275582 4.874771 13.742719 6.0416861 14.210938 7.2089844 C 10.306154 8.6104436 6.4013538 10.011646 2.5 11.421875 L 2.5 17.792969 C 7.148844 16.118896 11.800661 14.453193 16.451172 12.783203 C 17.087491 14.363826 17.723689 15.943201 18.361328 17.523438 L 20.251953 17.013672 L 26.455078 21.527344 C 26.466038 21.521444 26.477261 21.516236 26.488281 21.509766 C 27.490483 21.233162 28.495043 20.963659 29.5 20.695312 L 29.5 14.482422 C 27.730545 14.960343 25.961605 15.440346 24.191406 15.916016 C 23.49645 14.193516 22.799645 12.471902 22.103516 10.75 C 24.569595 9.8626675 27.035439 8.9734504 29.5 8.0820312 L 29.5 5.5 C 29.5 4.0495419 28.481329 2.8454161 27.117188 2.5625 C 26.250103 2.8847441 25.385403 3.2173414 24.509766 3.5078125 C 22.957009 4.0675553 21.404954 4.6254161 19.851562 5.1835938 C 19.488935 4.2889975 19.12501 3.3944009 18.761719 2.5 L 12.664062 2.5 z " /><path
     id="path2-2"
     style="font-variation-settings:normal;baseline-shift:baseline;display:inline;overflow:visible;opacity:0.2;vector-effect:none;fill:#b6802e;fill-opacity:1;stroke-width:1;stroke-linecap:round;stroke-linejoin:round;stroke-miterlimit:4;stroke-dasharray:none;stroke-dashoffset:0;stroke-opacity:1;-inkscape-stroke:none;enable-background:accumulate;stop-color:#000000;stop-opacity:1"
     d="M 13.660156 2.5 C 13.616309 2.8311769 13.655012 3.1778947 13.789062 3.5097656 L 15.167969 6.9277344 L 18.935547 5.5742188 L 17.695312 2.5 L 13.660156 2.5 z M 28.398438 3.1738281 L 2.5 12.482422 L 2.5 16.732422 L 17.017578 11.513672 L 19.337891 17.259766 L 20.251953 17.013672 L 20.785156 10.160156 L 29.5 7.0273438 L 29.5 5.5 C 29.5 4.5592918 29.07187 3.723069 28.398438 3.1738281 z M 29.5 15.519531 L 24.140625 16.964844 L 25.648438 20.701172 L 29.5 19.662109 L 29.5 15.519531 z " /><path
     id="path3"
     style="baseline-shift:baseline;display:inline;overflow:visible;vector-effect:none;fill:#fafafa;stroke-linecap:round;stroke-linejoin:round;enable-background:accumulate;stop-color:#000000"
     d="M 27.236328 2.5898438 L 2.5 11.482422 L 2.5 15.732422 L 29.5 6.0273438 L 29.5 5.5 C 29.5 4.0931101 28.54075 2.9173258 27.238281 2.5898438 L 27.236328 2.5898438 z M 29.5 14.519531 L 24.140625 15.964844 L 25.648438 19.701172 L 29.5 18.662109 L 29.5 14.519531 z M 20.251953 17.013672 L 2.5 21.802734 L 2.5 25.947266 L 11.603516 23.490234 A 1.041857 1.041857 0 0 1 12.869141 24.183594 L 14.539062 29.5 L 18.732422 29.5 L 16.433594 22.1875 L 21.759766 20.75 L 20.251953 17.013672 z " /><path
     id="path58"
     style="baseline-shift:baseline;display:inline;overflow:visible;vector-effect:none;fill:#ffe16b;stroke-linecap:round;stroke-linejoin:round;enable-background:accumulate;stop-color:#000000"
     d="M 14.394531 2.5 L 25.289062 29.5 L 26.5 29.5 C 27.571684 29.5 28.508669 28.944303 29.039062 28.103516 L 18.707031 2.5 L 14.394531 2.5 z " /><ellipse
     id="Shadow-6-7"
     fill="url(#radialGradient-9)"
     fill-rule="nonzero"
     opacity="0.580799"
     filter="url(#filter-10)"
     cx="66.786949"
     cy="42.867226"
     rx="11.5"
     ry="5"
     style="opacity:0.3;fill:url(#radialGradient-9-0-5-6);stroke-width:2.03704;filter:url(#filter-10-6-6-8)"
     transform="matrix(0.49090909,0,0,0.49090909,-16.78632,1.2727273)" /><path
     id="rect52-9-8-3-0"
     style="font-variation-settings:normal;opacity:0.125723;vector-effect:none;fill:#ff8c82;fill-opacity:1;stroke:none;stroke-width:0.999992;stroke-linecap:round;stroke-linejoin:round;stroke-miterlimit:4;stroke-dasharray:none;stroke-dashoffset:0;stroke-opacity:0.5;-inkscape-stroke:none"
     d="m 15.679759,11.752486 c -2.419485,0.08013 -4.913552,1.363758 -5.9864279,3.604548 -0.9396614,1.900973 -0.4475545,4.333746 1.0637909,5.796297 0.952771,0.901596 2.007785,1.688592 2.996882,2.549941 0.57836,0.505807 1.226597,1.025094 2.034229,1.040448 0.849351,0.08325 1.674647,-0.291219 2.267451,-0.885478 1.085332,-0.92478 2.218443,-1.798233 3.259913,-2.77166 1.396652,-1.432684 1.901834,-3.709011 1.066958,-5.555042 -1.102805,-2.552106 -4.02268,-3.909535 -6.702796,-3.779054 z" /><path
     id="rect52-9-8-3"
     style="font-variation-settings:normal;opacity:0.334042;vector-effect:none;fill:#ff8c82;fill-opacity:1;stroke:none;stroke-width:0.999992;stroke-linecap:round;stroke-linejoin:round;stroke-miterlimit:4;stroke-dasharray:none;stroke-dashoffset:0;stroke-opacity:0.5;-inkscape-stroke:none"
     d="m 15.688566,12.243566 c -2.249839,0.07269 -4.377729,1.250096 -5.349285,2.94519 -1.0420453,1.735069 -0.787317,3.944796 0.632818,5.481242 0.548741,0.596355 1.247593,1.079989 1.864207,1.625358 0.654125,0.531475 1.274067,1.094662 1.949754,1.60615 0.713969,0.513382 1.867517,0.468067 2.541154,-0.07586 1.13405,-0.945714 2.275206,-1.886705 3.39737,-2.841968 1.477955,-1.377523 1.972016,-3.426378 1.242522,-5.17345 -0.713579,-1.81392 -2.699343,-3.219773 -4.95974,-3.505814 -0.435467,-0.05963 -0.87817,-0.07661 -1.3188,-0.06085 z" /><path
     id="rect52-9-8"
     style="font-variation-settings:normal;opacity:0.3;vector-effect:none;fill:#ed5353;fill-opacity:1;stroke:none;stroke-width:3.02524;stroke-linecap:round;stroke-linejoin:round;stroke-miterlimit:4;stroke-dasharray:none;stroke-dashoffset:0;stroke-opacity:0.5;-inkscape-stroke:none"
     d="M 31.999076,12 C 23.163215,12.000448 16.000447,19.163217 16,27.999078 c -8.9e-5,4.490502 1.886869,8.774353 5.200068,11.805413 l 8.016506,8.017876 a 3.9350527,3.9350527 0.00244835 0 0 5.565242,2.38e-4 L 42.79993,39.804491 C 46.11313,36.773432 48.000088,32.489581 48,27.999078 47.999553,19.162495 40.835659,11.999427 31.999076,12 Z"
     transform="matrix(0.36163267,0,0,0.30213615,4.4278048,9.0410406)" /><path
     id="rect52-9"
     style="font-variation-settings:normal;vector-effect:none;fill:url(#linearGradient68);fill-opacity:1;stroke:#a10705;stroke-width:2.15391;stroke-linecap:round;stroke-linejoin:round;stroke-miterlimit:4;stroke-dasharray:none;stroke-dashoffset:0;stroke-opacity:0.5;-inkscape-stroke:none"
     d="M 31.999076,12 C 23.163215,12.000448 16.000447,19.163217 16,27.999078 c -8.9e-5,4.490502 1.886869,8.774353 5.200068,11.805413 l 8.016506,8.017876 a 3.9350527,3.9350527 0.00244835 0 0 5.565242,2.38e-4 L 42.79993,39.804491 C 46.11313,36.773432 48.000088,32.489581 48,27.999078 47.999553,19.162495 40.835659,11.999427 31.999076,12 Z"
     transform="matrix(0.46846828,0,0,0.4601037,1.0093977,-0.02609322)" /><path
     id="rect52-9-2"
     style="font-variation-settings:normal;vector-effect:none;fill:none;fill-opacity:1;stroke:url(#linearGradient69);stroke-width:1;stroke-linecap:round;stroke-linejoin:round;stroke-miterlimit:4;stroke-dasharray:none;stroke-dashoffset:0;stroke-opacity:1;-inkscape-stroke:none;opacity:0.3;stop-color:#000000;stop-opacity:1"
     d="m 15.677396,6.4944389 c -2.515808,0.091581 -4.866413,1.7752144 -5.7379866,4.0924481 -0.903933,2.254675 -0.3296077,4.982364 1.4048166,6.704695 1.390747,1.331068 2.734593,2.712017 4.135736,4.03096 0.407585,0.357723 1.017579,0.145395 1.313744,-0.246767 1.367179,-1.356242 2.762833,-2.686768 4.114523,-4.056802 1.666283,-1.849905 2.055833,-4.678931 0.95107,-6.897512 C 20.790234,7.8516694 18.264482,6.3508543 15.719393,6.4933871 Z" /><circle
     style="font-variation-settings:normal;vector-effect:none;fill:#a10705;fill-opacity:1;stroke:none;stroke-width:1;stroke-linecap:round;stroke-linejoin:round;stroke-miterlimit:4;stroke-dasharray:none;stroke-dashoffset:0;stroke-opacity:1;-inkscape-stroke:none;marker:none"
     id="path73"
     cx="16"
     cy="13"
     r="3" /><circle
     style="font-variation-settings:normal;opacity:0.1;vector-effect:none;fill:#fafafa;fill-opacity:1;stroke:none;stroke-width:1;stroke-linecap:round;stroke-linejoin:round;stroke-miterlimit:4;stroke-dasharray:none;stroke-dashoffset:0;stroke-opacity:1;-inkscape-stroke:none;marker:none"
     id="path73-0"
     cx="16"
     cy="14"
     r="3" /><rect
     style="opacity:0.4;fill:none;stroke:url(#linearGradient4161-0-2);stroke-width:1;stroke-linecap:round;stroke-linejoin:round;stroke-miterlimit:4;stroke-dasharray:none;stroke-dashoffset:0;stroke-opacity:1"
     id="rect6741-7-4-3-8"
     y="3.4999998"
     x="3.5"
     ry="2"
     rx="2"
     height="25"
     width="25" /><rect
     style="color:#000000;font-variation-settings:normal;display:inline;overflow:visible;visibility:visible;opacity:0.5;vector-effect:none;fill:none;fill-opacity:1;fill-rule:nonzero;stroke:url(#linearGradient1);stroke-width:1;stroke-linecap:round;stroke-linejoin:round;stroke-miterlimit:4;stroke-dasharray:none;stroke-dashoffset:0;stroke-opacity:1;marker:none;enable-background:accumulate;stop-color:#000000;-inkscape-stroke:none;stop-opacity:1"
     id="rect5505-21-1-2-1-5"
     y="2.4999962"
     x="2.5"
     ry="3"
     rx="3"
     height="27.000008"
     width="27.000008" /></svg>
